<svg width="24" height="24" viewBox="0 0 25 27" fill="none" xmlns="http://www.w3.org/2000/svg">
<path d="M12.9577 3.34527C13.1598 3.34527 13.3618 3.40937 13.5324 3.53866L22.2338 10.1508C22.9574 10.7005 22.5684 11.8554 21.6591 11.8554H19.4308V18.938C19.4308 19.7192 18.7974 20.3537 18.0151 20.3537H15.9443C14.2842 22.7927 11.4823 23.6554 11.4823 23.6554L12.4438 20.3537H7.90135C7.12019 20.3537 6.4857 19.7203 6.4857 18.938V11.8554H4.25739C3.34803 11.8554 2.95908 10.7005 3.68266 10.1508L12.384 3.53866C12.5535 3.40937 12.7556 3.34527 12.9588 3.34527M12.9588 0.955078C12.233 0.955078 11.516 1.19627 10.938 1.6352L2.23659 8.24734C1.09365 9.11541 0.634078 10.6125 1.09256 11.9717C1.53366 13.2798 2.72767 14.175 4.09551 14.2413V18.9369C4.09551 21.0349 5.80232 22.7428 7.90135 22.7428H9.25832L9.18771 22.9861C8.94217 23.8303 9.17901 24.7407 9.8059 25.3568C10.26 25.8033 10.8652 26.0445 11.4834 26.0445C11.718 26.0445 11.9549 26.0097 12.1863 25.9391C12.509 25.8391 15.0763 24.9961 17.1003 22.7438H18.0162C20.1141 22.7438 21.822 21.037 21.822 18.938V14.2424C23.1899 14.1772 24.385 13.2809 24.825 11.9728C25.2835 10.6125 24.8228 9.1165 23.681 8.24842L14.9796 1.63628C14.4016 1.19736 13.6845 0.956165 12.9588 0.956165V0.955078Z" fill="#777777"/>
<path d="M11.4184 15.7255C10.4352 14.9682 9.28027 14.0784 9.28027 12.5357C9.28027 10.8321 11.2066 9.62506 12.7819 11.2623L13.4827 11.962C13.5848 12.0641 13.751 12.0641 13.8542 11.962C13.9564 11.8599 13.9564 11.6937 13.8542 11.5905L13.1774 10.9136C14.6626 9.82606 16.2846 10.9723 16.2846 12.5346C16.2846 14.0969 15.1297 14.9671 14.1465 15.7244C14.0444 15.8026 13.9444 15.8808 13.8466 15.9569C13.4827 16.2437 13.1328 16.5132 12.783 16.5132C12.4332 16.5132 12.0822 16.2437 11.7194 15.9569C11.6227 15.8808 11.5216 15.8026 11.4195 15.7244L11.4184 15.7255Z" fill="#777777"/>
</svg>