<?xml version="1.0" encoding="UTF-8"?><svg id="_레이어_1" xmlns="http://www.w3.org/2000/svg" viewBox="0 0 63.53 61"><path d="m57.06,19.69c-.04-.35-.04-.69-.04-1.04,0-.24,0-.47-.02-.78-.05-.4-.1-.88-.35-1.37-.07-.55-.25-1.02-.53-1.44-.2-.29-.38-.58-.46-.86-.05-.18-.17-.36-.31-.49-.16-.15-.32-.29-.34-.38-.11-.41-.38-.63-.62-.76l-.02-.03c-.27-.39-.57-.83-1.02-1.2-.2-.25-.53-.6-1.05-.76-.3-.34-.64-.54-.93-.71-.1-.06-.2-.12-.3-.19-.24-.17-.49-.27-.68-.35-.09-.04-.22-.09-.26-.12-.41-.36-.87-.54-1.37-.55-.28-.03-.58-.21-.92-.41-.12-.07-.24-.14-.4-.23-.13-.07-.32-.18-.58-.23-.13-.06-.28-.1-.42-.1-.05,0-.1,0-.15.01,0,0-.06-.01-.23-.11-.44-.26-.93-.39-1.45-.39,0,0-.32,0-.42,0h-.46c-.47-.02-.81-.08-1.1-.23-.31-.16-.67-.24-1.03-.24-.1,0-.2,0-.3.02-.12.01-.24.04-.36.06-.09.02-.17.04-.19.06-.19-.12-.4-.17-.64-.17-.05,0-.11,0-.16,0h-3.13c-.19,0-.38.02-.57.05-.2.03-.4.03-.6.03-.25,0-.5,0-.8.03h-.15c-.28,0-.52.05-.74.16-.27.14-.6.21-1.06.21-.02,0-.05,0-.07,0-.17,0-.31.03-.42.06,0,0-.46,0-.46,0-.04,0-.07,0-.11,0l-.25.04c-.13.02-.27.04-.4.05-.41.01-.73.15-.96.26-.08.04-.19.08-.28.09-.51,0-.94.16-1.28.28-.09.03-.18.07-.33.11-.5.07-.96.23-1.38.49-.33.02-.86.09-1.25.53-.05,0-.11,0-.16,0-.58,0-1.12.19-1.6.56-.18.14-.42.26-.66.34l-.17.05c-.29.08-.69.19-1.05.51-.42.08-.74.3-.97.48-.33.04-.55.22-.56.24-.42.25-.85.48-1.27.69-.12.04-.36.12-.58.34,0,0-.03.04-.05.06-.06,0-.12.03-.19.05-.14.04-.45.12-.71.44-.02.02-.04.05-.06.08-.05.04-.11.09-.15.14-.08.05-.15.1-.22.17-.09.08-.13.14-.19.25-.02.03-.05.05-.14.15-.05.05-.15.12-.25.19-.16.11-.36.25-.55.45,0,0-.02.01-.03.02-.52.05-.95.4-1.13.92,0,.01-.01.02-.03.04-.25.08-.61.24-.9.59-.5.21-.84.64-.97,1.21-.09.08-.18.15-.28.23-.25.2-.56.44-.82.79-.03.02-.1.07-.11.08-.26.2-.44.43-.57.7-.1.22-.21.37-.34.47-.37.29-.58.66-.65,1.13-.16.16-.29.35-.42.54l-.1.14c-.14.2-.27.41-.39.63-.15.26-.28.48-.43.64-.04.02-.08.04-.11.06-.28.16-.47.45-.5.78,0,.04,0,.16,0,.2,0,0-.02.06-.16.18-.19.18-.31.42-.32.68,0,.12-.07.29-.14.47-.09.23-.18.48-.24.78-.05.28-.17.58-.29.9-.15.38-.32.8-.41,1.28-.05.15-.16.47-.07.85.02.1.03.18-.09.34-.08.11-.15.23-.18.37-.06.24-.06.46-.06.69,0,.58,0,1.16.01,1.74,0,.59.02,1.17.01,1.79,0,.11.02.21.04.31.02.1.06.19.11.28.05.09.11.19.17.28.05.08.13.2.14.23.05.51.13,1.09.51,1.62.21.99.55,1.84,1.05,2.6h0s.03.08.03.08c.03.1.08.19.13.28.4.57.89,1.24,1.51,1.81.04.04.11.14.17.24.13.21.3.47.57.7.04.03.1.09.14.11.14.13.4.37.81.45.26.39.6.64.86.82l.15.11c.19.15.39.28.59.41.24.15.46.3.67.49.36.31.75.47,1.07.59.21.08.4.16.51.25l.11.09c.35.29.78.66,1.42.79.1.02.23.08.38.15.33.15.73.33,1.25.33h.03c.15.04.32.16.52.29l.2.13c.16.1.47.3.89.3.1,0,.2-.01.29-.03.25.19.62.44,1.15.47.55.03,1.1.13,1.7.31.42.29.88.33,1.1.35.44.04.88.15,1.49.33.14.04.36.11.63.11.14,0,.28-.02.41-.06.05-.02.11-.02.17-.02.18,0,.41.06.65.12.28.07.56.14.85.17.08,0,.17.03.25.04.13.03.28.06.44.07.12.05.24.08.38.08.03,0,.06,0,.08,0,.05,0,.1.02.16.04.04,0,.07.02.12.03-.12.09-.22.18-.32.27-.11.1-.22.19-.35.28-.13.09-.25.21-.37.32-.04.04-.07.07-.11.11-.33.04-.66.22-.87.5-.08.11-.25.23-.45.36-.32.22-.72.49-1.03.96-.02.03-.11.11-.25.19-.14.07-.55.3-.7.8-.09.3-.05.63.11.91.22.39.61.62,1.05.62.24,0,.44-.07.55-.11l.1-.03c.15-.05.36-.11.58-.24.44-.28.79-.42,1.15-.47.36-.05.67-.26.83-.55.03-.04.17-.12.26-.18.15-.09.29-.18.42-.28l.18-.15c.06-.05.15-.13.12-.13.25-.02.49-.13.66-.32.08-.09.12-.12.11-.12.26-.02.54-.17.71-.36.04-.05.08-.09.11-.15.03-.03.14-.11.25-.17.44-.28.94-.62,1.37-1.09,0,0,.01,0,.02,0,.33-.05.7-.11,1.08-.26.12-.05.29-.06.49-.08.12,0,.24-.02.36-.04.31.14.65.21,1.01.21.32,0,.62-.05.93-.11.22.09.52.22.89.22.06,0,.22-.01.28-.03.17-.03.35-.04.61-.04.13,0,.77.01.77.01.5,0,.92-.14,1.26-.26.09-.03.18-.06.27-.09.81-.23,1.05-.89.92-1.43-.09-.43-.47-.92-1.29-.92h0c-.23,0-.46-.02-.68-.04-.28-.02-.56-.04-.86-.04-.07,0-.14-.01-.21-.02-.15-.02-.31-.04-.46-.04s-.29.01-.48.05c-.08,0-.16-.01-.29-.04-.13-.05-.31-.12-.54-.14.28-.16.6-.37.87-.71.36-.07.67-.29.88-.61.27-.14.44-.34.54-.48.44-.25,1.06-.67,1.49-1.38.36-.2.61-.47.8-.68.1-.11.2-.22.27-.27.11-.08.2-.17.28-.28.04-.06.09-.11.14-.17.12-.13.26-.3.38-.51,0-.01.02-.03.03-.05.26-.13.44-.31.56-.43l.08-.08c.25-.22.43-.47.56-.67.07-.1.2-.29.25-.31.35-.11.63-.4.72-.68.03-.03.12-.09.17-.12.06-.04.12-.09.17-.15.17-.17.29-.39.38-.63.44-.44.91-.83,1.41-1.18.14-.1.25-.23.34-.37.03-.04.05-.08.07-.13.03-.02.06-.04.09-.06.2-.15.35-.33.45-.53.02-.04.06-.15.07-.18.02-.05.05-.1.12-.22.04-.05.08-.09.13-.14.14-.14.34-.34.48-.62.04-.08.07-.16.09-.24.02-.08.03-.12.03-.12.13-.2.31-.38.58-.57.21-.15.55-.39.76-.9.02-.05.04-.12.05-.2.31-.23.44-.51.5-.71.03-.11.05-.22.04-.33.21-.16.4-.43.49-.88.15-.18.26-.36.36-.52l.09-.14c.6-.92,1.03-1.71,1.36-2.48.06-.13.11-.27.16-.4.14-.36.26-.68.45-.87.15-.15.25-.34.29-.55.03-.17.13-.37.25-.6l.08-.17c.1-.21.16-.43.16-.64,0-.25.11-.54.23-.87.12-.34.26-.71.32-1.14.18-.27.25-.57.22-.86.22-.32.21-.66.2-.79-.02-.21,0-.46.03-.73.03-.34.07-.72.02-1.13Zm-4.33,4.66c.03.23-.09.44-.37.87-.07.1-.14.21-.2.31-.13.22-.36.58-.33,1.1,0,.15-.03.34-.31.66-.03.03-.05.06-.08.1-.13.19-.24.4-.33.62-.06.13-.14.31-.18.34-.23.16-.38.39-.44.69-.03.02-.05.04-.08.06-.21.19-.35.43-.44.71-.09.29-.31.57-.6.9-.37.43-.84,1-1.24,1.66-.07.12-.09.16-.11.3-.02.03-.1.1-.15.16-.1.09-.19.19-.28.29-.03.03-.09.11-.12.17-.02,0-.04.02-.06.03-.53.3-.72.74-.8,1.13,0,.07-.02.12-.02.16-.33.12-.59.33-.75.62-.02.04-.04.08-.06.12-.02.05-.04.13-.06.2-.02.01-.06.03-.11.05-.11.05-.22.11-.31.2-.21.2-.36.42-.47.59-.07.1-.15.22-.19.25-.16.12-.26.26-.33.38-.48.17-.81.55-.9,1.03-.02.09-.03.17-.54.4-.04.02-.08.04-.12.06-.36.22-.6.54-.71.91-.16.11-.28.22-.4.33-.43.39-.9.8-1.39,1.15-.12.06-.35.2-.49.48-.18.36-.52.66-.9,1-.2.18-.4.36-.59.55-.25.25-.52.48-.79.71-.27.23-.54.46-.8.7-.15.14-.37.26-.63.4-.25.14-.54.29-.88.56-.1.09-.24.28-.3.41,0,.01-.01.03-.02.04-.01,0-.02.01-.04.02-.16.1-.4.25-.6.49-.28.1-.55.23-.83.38-.36-.23-.77-.34-1.2-.34-.15,0-.3.01-.46.04-.12-.02-.22-.03-.3-.03-.02,0-.04-.01-.07-.02-.14-.03-.29-.05-.43-.05-.16,0-.31.02-.47.05-.05-.01-.09-.02-.13-.03-.24-.05-.47-.09-.71-.14-.73-.14-1.41-.27-2.03-.53-.29-.12-.62-.19-.97-.19h-.15s-.08,0-.15-.05c-.5-.34-1.02-.41-1.43-.43-.02,0-.41,0-.41,0-.04-.01-.08-.02-.12-.03-.41-.14-.8-.23-1.19-.33-.29-.07-.59-.14-.85-.22-.07-.04-.15-.07-.29-.12-.12-.06-.33-.15-.61-.17-.06,0-.22-.1-.34-.18-.37-.24-.76-.36-1.14-.37-.17-.13-.35-.21-.47-.27l-.09-.05c-.3-.15-.61-.29-.91-.42-.43-.18-.83-.36-1.14-.58-.16-.17-.45-.49-.96-.55-.09-.01-.23-.12-.47-.3-.07-.05-.13-.11-.2-.14-.08-.07-.15-.14-.24-.2-.03-.02-.07-.05-.1-.07-.02,0-.04-.02-.06-.03-.18-.13-.36-.25-.54-.37-.16-.1-.32-.2-.46-.31-.14-.11-.28-.29-.44-.5-.16-.21-.34-.45-.63-.73-.49-.47-.96-.92-1.2-1.46-.07-.16-.18-.29-.33-.4-.03-.02-.06-.04-.08-.06-.02-.04-.04-.07-.06-.1-.03-.04-.11-.16-.15-.2-.01-.02-.04-.04-.06-.07,0-.02,0-.05-.02-.07-.02-.08-.04-.15-.07-.22-.02-.04-.06-.13-.08-.17-.36-.65-.7-1.27-.87-1.92,0,0,0-.02,0-.03,0,0,0-.16,0-.16,0-.04.01-.08.02-.12.04-.22.11-.6-.06-1.05-.07-.18-.17-.32-.28-.47,0-.22-.02-.44-.04-.66-.03-.45-.06-.88-.04-1.29,0-.08.01-.16.02-.24.03-.21.05-.41.04-.62v-.18c-.02-.3-.03-.57,0-.81.08-.08.15-.17.21-.29.09-.15.14-.33.14-.51s.04-.34.07-.5c.03-.17.07-.36.09-.58.19-.24.35-.58.38-1.04.4-.49.6-1.04.74-1.53,0,0,.04-.17.05-.2.23-.23.38-.47.51-.67.09-.14.17-.27.24-.33.1-.09.19-.2.24-.33.03-.06.05-.13.07-.2l.1-.13c.23-.3.5-.66.69-1.11.2-.14.34-.3.44-.41.04-.04.07-.09.07-.1.19-.08.63-.32.74-.99.04-.2.23-.36.62-.66l.3-.22c.42-.32.91-.68,1.24-1.28,0,0,.02-.02.09-.06.39-.2.66-.48.87-.71.09-.1.18-.19.26-.25.12-.03.22-.08.28-.11.36-.16.68-.39,1.02-.72.02-.02.05-.05.03-.05,0,0,0,0,0,0,.3-.08.51-.22.67-.32.04-.02.07-.05.11-.07.15-.08.29-.18.43-.28.08-.06.2-.14.16-.15.07,0,.15-.01.21-.02.18-.03.34-.09.48-.17.08-.05.22-.18.29-.25.04-.04.19-.11.29-.16.23-.11.52-.25.79-.49.41-.1.74-.3,1.02-.46.11-.07.22-.13.33-.19.09-.04.18-.09.27-.14.07-.04.16-.09.17-.1.11,0,.22-.03.32-.07.11-.04.38-.15.6-.39h0c.11,0,.23-.03.4-.07.24-.04.64-.11.95-.41.01-.01.03-.02.04-.03.35-.07.66-.18.94-.29l.24-.09c.09-.03.19-.07.28-.11.07-.03.17-.07.12-.09.1.03.27.06.38.06.29,0,.52-.1.65-.16.4-.18.87-.27,1.36-.37.3-.06.6-.12.93-.2.15-.04.4-.1.65-.27.04-.01.08-.03.11-.06.21.08.42.12.63.12.27,0,.52-.06.76-.18.31-.15.68-.19,1.14-.19h.8c.25,0,.5,0,.75-.01.25,0,.49-.02.83-.02h.04c.18,0,.36-.05.51-.14.38.11.75.13,1.04.13h.64s.32,0,.32,0c.23.12.49.18.77.18.12,0,.24-.01.37-.03l.16-.02c.19-.03.37-.05.56-.05s.28.04.35.09c.04.03.08.05.12.08.45.24.89.24,1.16.24.21,0,.36.03.45.08.64.35,1.36.52,2.21.52.09,0,.18,0,.27,0,.36.35.77.61,1.21.77.62.23,1.12.43,1.58.81.21.15.44.28.67.41.44.25.72.42.88.69.23.38.55.64.86.86,0,0,.14.1.16.11,0,.02.01.03.02.05.09.24.23.46.43.66l.08.09c.11.13.25.3.27.41.06.32.18.59.28.84.1.24.19.45.18.61,0,.29.07.54.11.69v.03c-.02.41.12.75.19.92.18.42.14.47.11.51-.29.39-.3.82-.3,1.09,0,.21,0,.42.02.63.01.31.03.6,0,.86-.03.09-.04.16-.05.2-.02.06-.02.13-.03.19,0,.02,0,.05,0,.08-.59.58-.51,1.33-.47,1.72Z" style="fill:#dd1d1d;"/></svg>