<?xml version="1.0" encoding="UTF-8"?><svg id="_레이어_1" xmlns="http://www.w3.org/2000/svg" viewBox="0 0 63.53 61"><path d="m16.73,38.22c.27-.03.53-.05.8-.08.5.03,1.02.17,1.47-.2,2.82-.28,5.64-.56,8.45-.84.5.25.98.38,1.37-.18.49-.03.98-.06,1.46-.1.35.31.67.32.94-.09.25-.03.5-.06.75-.09.41.26.79.26,1.12-.15,3.16-.02,6.29-.52,9.45-.68.84.01,1.71.35,2.48-.27.16-.03.33-.05.49-.08.3.15.58.22.78-.14,1.09,0,2.17,0,3.26,0,1.61.23,3.17-.34,4.77-.27.1,0,.2-.22.31-.33,1.04-.04,2.08-.13,3.11-.08.54.03,1.18.13,1.34.86.16.74-.07,1.28-.78,1.58-1.84-.13-3.65.49-5.49.29-.21-.02-.41.04-.49.28-3.05.15-6.08.56-9.11.84-2.48.22-4.95.39-7.43.45-.27-.03-.56-.19-.74.17-.17.04-.34.07-.51.11-.59-.03-1.21-.27-1.75.18-2.09.18-4.18.36-6.27.54-2.64-.16-5.19.42-7.75.93-.42.03-.84.06-1.26.09-.27-.06-.56-.19-.75.15-.5.03-.99.06-1.49.09-.86,0-1.73-.04-2.52.4-2.11.05-4.19.23-6.24.77-.5.13-1.07.17-1.54-.23-.08-.27-.3-.23-.51-.23-.08-.09-.15-.17-.23-.26-.14-1.15.21-1.87,1.53-1.75.21.02.41-.06.44-.32.27-.04.53-.09.8-.13.47.18.93.31,1.28-.22,1.15-.12,2.31-.23,3.46-.35,1.69-.01,3.38-.06,5-.63Z" style="fill:#dd1d1d;"/><path d="m30.48,41.98c.76-.07,1.52-.15,2.28-.22,1.91.13,3.81-.04,5.69-.27,1.36-.17,2.77-.1,4.1-.59,2.51-.14,5.02-.25,7.51-.63.28.15.54.18.76-.1,2.27-.11,4.54-.21,6.81-.34.92-.05,1.65.31,1.71,1.21.06.97-.76,1.46-1.63,1.51-2.11.1-4.22.12-6.32.34-3.56.36-7.16.23-10.7.96-1.41.29-2.91-.02-4.34.33-.55-.24-1.1-.42-1.56.17-7.93.72-15.85,1.56-23.75,2.52-1.22-.1-2.41-.03-3.55.48-.41.03-.83.06-1.24.1-.09,0-.19.01-.28.02-.47-.05-.87-.23-1.2-.58-.36-.38-.42-.83-.27-1.27.15-.45.53-.64,1.04-.74,1.06-.2,2.13-.26,3.2-.29.36.03.77.28.99-.25.16-.04.31-.08.47-.12,1.54.05,3.06-.08,4.55-.49.26-.02.51-.05.77-.07.29.01.58.05.86.03,2.89-.26,5.74-.84,8.67-.87.87-.01,1.99.15,2.8-.58.55.03,1.11.06,1.66.08.36.02.82.33.97-.31Z" style="fill:#dd1d1d;"/><path d="m35.64,17.95c.14-.12.28-.24.43-.36.69-.26,1.57-.27,1.74-1.25,2.45-2.05,4.83-1.99,6.22.18.44.68.84,1.38,1.26,2.07.31,2.32-.01,4.57-.67,6.79-.57,1.1-.93,2.3-1.82,3.22-.84.91-1.68,1.81-2.52,2.72-.24.2-.47.4-.71.6-1.64.48-3.27,1.05-5,.4-1.1-.97-1.61-2.24-1.8-3.66.33-1.44.22-2.89.16-4.35.09-1.88,1-3.5,1.66-5.2.29-.04.49-.17.48-.5.05-.05.09-.12.12-.18.25-.06.4-.23.45-.48Zm.01,6.41c-.07.33-.13.66-.2.99-.42.73-.2,1.53-.19,2.29.01.59-.36,1.34.42,1.78.02.08.06.15.11.22.85.97,1.59.39,2.33-.18.07-.02.14-.06.2-.11.76-.22,1.24-.74,1.52-1.46.79-.8,1.32-1.8,1.76-2.78.83-1.86,1.72-3.79.9-5.92-.28-.74-.71-1.47-1.57-1.54-.73-.06-1.09.61-1.44,1.15-.2.3-.26.7-.47.99-.77,1.06-.37,2.52-1.26,3.52-.26.05-.6-.1-.71.3-.17-.02-.34-.03-.52-.05-.95-.31-1-.26-.89.81Z" style="fill:#dd1d1d;"/><path d="m21.03,33.59c-.82-.71-.9-1.54-.56-2.55.15-.44.45-.89.32-1.41,1-.97,1.1-2.31,1.42-3.55.86-2.16,1.73-4.32,2.59-6.49.48-.43,1.22-1.25.3-1.42-1.51-.28-3.16-.43-4.7.2-.2.03-.39.05-.59.08-.66.18-.86.63-.83,1.28.03.69-.02,1.38-.03,2.07-2.01.81-2.82.16-2.46-2.24.28-1.92.66-3.85,1.92-5.48.39-.51.76-.59,1.25-.5.51.1.91.34.84.99-.1.9.47.99,1.18.97,1.58-.05,3.16-.04,4.74-.09.88-.03,1.58.35,2.27.8-.09.48-.15.95.11,1.4-.27.48-.53.97-.8,1.45,0,0-.03-.05-.03-.05,0,0,.03.05.03.05-.91,2.26-1.85,4.5-2.72,6.78-.53,1.38-1.38,2.67-1.39,4.23-.24.08-.18.28-.17.46,0,0-.01.01-.01.01-.59.74-.87,1.59-.97,2.52-.08.09-.17.17-.25.26-.52-.14-.97.19-1.47.24Z" style="fill:#dd1d1d;"/></svg>