<?xml version="1.0" encoding="UTF-8"?><svg id="_레이어_1" xmlns="http://www.w3.org/2000/svg" viewBox="0 0 63.53 61"><path d="m47.04,40.04c.16-.04.32-.08.48-.12,1.34-.07,2.7.39,4.01-.22,1.98.05,3.93-.15,5.89-.41.72-.09,1.65-.06,1.88.94.17.77.07,1.52-.97,1.63-.09.01-.17.02-.26.04-1.43.11-2.86.21-4.29.32-.02-.15-.11-.17-.24-.13-.16-.01-.32-.03-.48-.04-.43,0-.92-.33-1.23.25-.49.06-.98.11-1.48.17-.5-.25-.98-.36-1.38.17-1.55.1-3.12.01-4.65.34-.33-.3-.61-.22-.87.1-5.59.25-11.12,1.09-16.69,1.49-.27-.13-.54-.17-.75.11-2,.21-4,.42-6.01.63-.94-.04-1.87,0-2.77.34-.5.05-1.01.09-1.51.14-.95-.05-1.87.03-2.77.37-.18.02-.35.03-.53.05-.51-.02-1.05-.21-1.46.27-1,.1-2.01.21-3.01.31-1.08-.27-2.31.38-3.27-.56-.51-1.26.11-1.89,1.88-2.03,1.55-.12,3.09-.33,4.63-.5,1.18-.03,2.36-.12,3.49-.47,2.83-.31,5.69-.37,8.5-.99.99-.22,2.03-.2,3.04-.28,1.53.14,3.03-.02,4.49-.5.26,0,.52,0,.79,0,1.44.16,2.84-.09,4.24-.35,1.16-.14,2.31-.28,3.47-.42.79.2,1.58.46,2.28-.21.29,0,.6.03.84-.21.27.68.48.33.69-.04.92,0,1.84-.02,2.76-.03.42,0,.88.26,1.25-.15Z" style="fill:#dd1d1d;"/><path d="m55.32,36.91c-.17.03-.34.07-.51.1-.35-.06-.72-.2-1.02.15-2.19,0-4.36.2-6.54.4-1.02-.1-2.07-.38-2.97.39-1.51-.02-3.01.1-4.51.3-2.02-.13-4.03-.05-6,.5-.17.01-.34.03-.51.04-.95,0-1.91-.1-2.84.02-.9.12-1.9-.08-2.68.61-1.17.11-2.34.23-3.51.34-.21-.02-.41-.05-.62-.05-3.44.1-6.83.66-10.25,1-.54.05-1.32-.28-1.64.54-1.74.09-3.46.32-5.18.65-1.54.29-2.44-.27-2.38-1.48.04-.73.38-1.11,1.15-1.19,2.22-.24,4.43-.55,6.64-.83.14.06.3.18.43.16,1.76-.19,3.52-.36,5.27-.62,1.77-.26,3.54-.6,5.3-.9,1.92-.11,3.83-.45,5.76-.38.43,0,.93.28,1.24-.27.17-.02.33-.04.5-.06.65.15,1.32.44,1.86-.24,1.07-.07,2.13-.15,3.2-.22.24.36.4.21.53-.09.48-.02.96-.04,1.44-.06.1.11.19.1.27-.02,1.41-.21,2.83-.34,4.26-.29.55,0,1.16.33,1.6-.3.56-.04,1.11-.07,1.67-.11.64.23,1.27.33,1.83-.19.88.02,1.77.05,2.65.07.42-.04.98.38,1.21-.34.26-.03.51-.05.77-.08.64.25,1.28.36,1.86-.15,1.24-.05,2.48-.12,3.72-.13,1.35-.02,1.7.38,1.67,1.77-.65.59-1.41.79-2.29.76-.46-.02-.99-.23-1.4.21Z" style="fill:#dd1d1d;"/><path d="m45.01,14.91c.18-.08.35-.17.53-.25.61.04,1.22.1,1.73-.35,1.92.37,2.9,1.82,3.8,3.35.51,2.66.06,5.24-.75,7.77-.67,1.66-1.68,3.11-2.82,4.48-.29.02-.48.15-.51.46,0,0-.02.02-.02.02-1.74,1.09-3.47,2.19-5.68,1.78-1.63-.8-2.32-2.2-2.45-3.94.2-1.04.23-2.08,0-3.12.08-.55.16-1.09.24-1.64.3-.12.47-.27.14-.54.51-2.35,1.28-4.55,3.28-6.1,1.34.02,1.88-1.01,2.51-1.92Zm2.31,10.51c.6-.44,1.07-.94.84-1.78.05-.16.1-.32.15-.49.41-.25.18-.65.22-.98.08-.26.15-.51.23-.77.47-.66.47-1.32.01-1.98-.16-.56-.45-1.04-.82-1.47-.72-.83-1.51-.84-2.13.06-.75,1.1-1.33,2.3-1.52,3.65,0,.17,0,.35,0,.52-.09.16-.18.33-.27.49-.41.02-.78.1-1.01.48-.16,0-.33,0-.49-.01-.64-.48-.92-.05-.99.48-.18,1.34-.43,2.68-.3,4.05.08.85.26,1.75,1.08,2.08.75.3,1.43-.25,1.98-.8,1.07-1.13,2.52-1.94,3.02-3.55Z" style="fill:#dd1d1d;"/><path d="m33.21,15.43c.09.09.18.18.26.27.95,1.74,1.75,3.49,1.53,5.58-.16,1.43-.82,2.72-.99,4.14-.64.93-.71,2.16-1.62,2.94-.33.11-.47.36-.48.69,0,0-.04.05-.04.05-.78.45-1.32,1.15-1.9,1.8-1.33,1.3-3.01,1.46-4.72,1.3-1.22-.12-1.75-1.13-2.25-2.08-.19-.36-.26-.77-.39-1.16.12-1.28.11-2.56-.05-3.84-.04-1.84.66-3.5,1.18-5.21.38-.13.51-.39.42-.77.03-.08.05-.15.08-.22.34-.13.55-.35.5-.75.33-.34.66-.68,1-1.02.74-.19,1.6-.2,1.76-1.22.18-.16.35-.33.53-.49.96-.59,1.98-.9,3.13-.77.76.09,1.3.68,2.04.77Zm-3.22,1.94l-.02.02c-1.49,1.04-1.81,2.71-2.19,4.28-.21.85-.5,1.29-1.36,1.24-.97-.06-1.3.37-1.04,1.29-.06.41-.13.82-.19,1.22-.44.77-.17,1.6-.21,2.4-.04.91.37,1.74,1.18,1.98.64.19,1.37-.26,1.83-.88,2.11-1.9,3.83-4.03,4.35-6.94.28-1.57.46-3.1-.88-4.33-.32-.92-.81-1.03-1.47-.29Z" style="fill:#dd1d1d;"/><path d="m11.46,16.15c1.51-.41,3.09-.56,4.41-1.52.53-.39,1.19-.61,1.78-.11.62.52.46,1.23.3,1.9-.16.67-.34,1.34-.52,2.01-1.09,1.85-1.28,3.93-1.46,6-.05,1.61-.92,3.08-.81,4.72-.31.11-.47.26-.15.54-.04.75-.12,1.49-.1,2.24.03.78-.37,1.15-1.06,1.26-.68.12-1.16-.07-1.45-.81-.42-1.07-.16-2.13-.14-3.19.4-.26.29-.63.19-.99.31-1.78.44-3.61,1.03-5.33.19-.55.26-1.11.24-1.68.9-.48.56-1.48.9-2.2.12-.25.17-.6-.07-.83-.3-.28-.64-.12-.91.08-.74.54-1.6.65-2.47.73-.07-.02-.13-.04-.19-.07-.04-.16-.13-.24-.31-.19-.17-.17-.34-.34-.52-.51,0-.35-.01-.7-.02-1.06.11-.15.22-.29.33-.44.38.03.58-.2.75-.49,0,0,0,0,0,0,0,0,.12,0,.12,0l.11-.05Z" style="fill:#dd1d1d;"/></svg>