<?xml version="1.0" encoding="UTF-8"?><svg id="_레이어_1" xmlns="http://www.w3.org/2000/svg" viewBox="0 0 63.53 61"><path d="m57.71,33.99c.69.14,1.33.34,1.37,1.21.05.98-.73,1.11-1.39,1.36-.81.12-1.66-.16-2.42.29-2.03-.18-4.02.24-6.03.36-1.28.08-2.57.09-3.84.27-.5.02-1.02-.09-1.51.11-.09-.2-.13-.08-.17.03-.92.15-1.9-.3-2.76.3-.17-.01-.33-.02-.5-.03-2.36-.19-4.65.75-7.04.36-.43-.07-1.36-.12-1.76.61-1.33-.25-2.65.6-3.99.05-1.32-.01-2.68-.26-3.84.64-.24.02-.48.05-.72.07-.86-.17-1.69-.15-2.48.28-.24.02-.47.05-.71.07-1.3.13-2.65-.09-3.89.48-.23.02-.45.03-.68.05-.2-.19-.36-.15-.48.09-.93.01-1.86.04-2.76.28-.27-.04-.56-.15-.76.15-.16.04-.32.09-.48.13-.43-.05-.86-.18-1.25.14-.59.04-1.18.08-1.76.13-.36-.07-.73-.21-1,.19-.32.03-.64.06-.96.09-.2,0-.39,0-.59,0-1.43-.89-1.52-1.43-.47-2.63.1-.03.2-.06.3-.09.41-.04.82-.08,1.23-.11.6.35,1.24.28,1.75-.1.45-.34.9-.31,1.39-.37,1.76-.2,3.5-.37,5.29-.39,3.49-.05,6.91-.98,10.41-1.2.55-.04,1.25,0,1.71-.52,3.03.1,6.03-.14,9.01-.66,1-.17,2.1.27,3-.48,1.19-.03,2.38-.07,3.56-.1.21-.02.43-.03.64-.05,1.31-.06,2.62-.21,3.93-.15,1.16.05,2.27-.1,3.38-.37,1.15-.09,2.3-.18,3.45-.26.45.25.85.26,1.18-.2.89-.03,1.78-.2,2.66,0Z" style="fill:#dd1d1d;"/><path d="m49.19,39.63c2.2.15,4.4.09,6.58-.16,1.07-.12,2.12-.21,3.18-.1.14.58.82,1.08.25,1.76-.91.39-1.87.48-2.86.59-.96.11-1.98-.14-2.89.37-4.16.3-8.3.76-12.48.8-.36,0-.71.17-1.07.27-.76-.03-1.55-.3-2.24.25-1.67-.02-3.33.23-4.99.4-.29-.17-.56-.26-.77.11-2.96.11-5.88.69-8.82.94-.41.03-.83.02-1.24.02-1.12.03-2.26-.07-3.34.14-.71.14-1.6-.22-2.15.57-2.59.35-5.22.43-7.78.98-.43-.39-.97-.28-1.39-.11-1.09.44-1.92.17-2.64-.69,0-.15,0-.29,0-.44,0-.16,0-.32,0-.48.64-.98,1.8-.89,2.64-.93,3.17-.16,6.24-1,9.41-1.07,1.02.03,2.02-.11,2.99-.46,2.18-.22,4.36-.44,6.54-.66.87.09,1.75.32,2.53-.3.16-.01.32-.02.48-.04.19.25.34.18.47-.06.25-.02.51-.03.76-.05.59,0,1.21.33,1.76-.15,1-.02,1.99-.05,2.99-.07,1.4.06,2.79.1,4.08-.6,2.47-.2,4.94-.39,7.41-.59.2.19.38.22.53-.06.68-.06,1.36-.12,2.04-.18Z" style="fill:#dd1d1d;"/><path d="m33.08,23.55c.15-1.58.59-3.09,1.3-4.51.17,0,.25-.06.2-.24.02-.08.04-.16.07-.23.36-.12.56-.34.48-.74.1-.08.19-.16.29-.24.71-.42,1.5-.75,2.01-1.47,1.18-1.25,2.46-2.05,4.34-1.72,2.39.43,3.62,3.12,3.84,5.29.26,2.63-.93,4.93-2.11,7.18-.62,1.19-1.5,2.21-2.35,3.24-1,.44-1.68,1.41-2.76,1.73-1.13.29-2.2.83-3.41.07-.5-.31-.58-.9-1.09-1.11-.77-1.75-1.26-3.54-1.08-5.49.05-.6.61-1.12.25-1.76Zm2.57.52c-.02,1.08-.05,2.16-.07,3.24-.48.75,0,1.45.42,1.85.48.47,1.27.2,1.85-.13,1.09-.63,1.85-1.62,2.6-2.6,1.68-2.21,2.47-4.71,2.16-7.47-.09-.81-.61-1.7-1.55-1.89-.84-.18-1.17.61-1.54,1.2-.7,1.11-1.27,2.26-1.38,3.6-.06.7-.52,1.04-1.19.96-.97-.11-1.39.27-1.31,1.24Z" style="fill:#dd1d1d;"/><path d="m17.63,26.8c-.56-.78-.97-1.45-.43-2.57.38-.77.08-1.88.08-2.83.01-2.12.03-4.24.04-6.36,0,0,.01-.02.01-.02.09-.07.18-.15.27-.22.4-.22.81-.35,1.25-.16.08.24.29.2.47.2,0,0,0,0,0,0,.41,1.07.37,2.19.35,3.31-.03,1.62-.07,3.25-.08,4.87,0,.35-.18.83.29.98.45.15.99.29,1.32-.29,0,0,.05-.03.05-.03.39-.06.88.15,1.12-.31.76-1.44,1.48-2.9,1.49-4.59.57-.35.43-.97.55-1.49.33-.16.21-.46.22-.72.09-.17.19-.35.28-.52.28-.08.22-.29.21-.49.09-.08.18-.16.27-.24.57,0,1.13.02,1.7.03.63.58.68,1.26.36,2.02-.4.94-.69,1.91-.85,2.92-.91.64-.61,1.75-.98,2.61-.27.62.04,1.01.78.98.99-.04,1.98-.03,2.97-.03.98,1.32.64,2.2-.97,2.51-1.12.02-2.25,0-3.37.07-.47.03-1.03.2-.65.93-.43.39-.02,1.05-.46,1.44-.23.66-.51,1.31-.7,1.99-.35,1.26-1.14,1.65-2.36,1.29-.69-.52-.49-1.2-.39-1.9.16-1.03.89-1.92.78-3.02.05-.19-.02-.25-.21-.21l-.95.04c-.03-.14-.05-.31-.25-.3-.2,0-.22.16-.22.31-.35-.15-.69-.07-1.04.03-.08,0-.17-.02-.25-.03-.16-.03-.32-.06-.48-.09-.08-.03-.16-.07-.24-.1h0Z" style="fill:#dd1d1d;"/></svg>