<svg width="281" height="281" viewBox="0 0 281 281" fill="none" xmlns="http://www.w3.org/2000/svg">
<path d="M231.375 0H49.6246C22.2177 0 0 22.2177 0 49.6246V231.375C0 258.782 22.2177 281 49.6246 281H231.375C258.782 281 281 258.782 281 231.375V49.6246C281 22.2177 258.782 0 231.375 0Z" fill="#FFBE5C"/>
<path d="M220.499 111.632L145.482 54.6268C142.559 52.4069 138.504 52.4069 135.581 54.6268L60.5637 111.632C54.3255 116.372 57.6787 126.329 65.5186 126.329H84.7296V187.39C84.7296 194.125 90.1904 199.595 96.9344 199.595H136.096L127.807 228.06C127.807 228.06 151.964 220.623 166.276 199.595H184.129C190.863 199.595 196.333 194.134 196.333 187.39V126.329H215.545C223.384 126.329 226.738 116.372 220.499 111.632Z" fill="#FFBE5C"/>
<path d="M140.536 52.9499C142.279 52.9499 144.021 53.5026 145.491 54.6172L220.509 111.623C226.747 116.362 223.394 126.319 215.554 126.319H196.343V187.38C196.343 194.115 190.882 199.585 184.138 199.585H166.285C151.973 220.613 127.817 228.05 127.817 228.05L136.106 199.585H96.944C90.2094 199.585 84.7393 194.124 84.7393 187.38V126.319H65.5282C57.6883 126.319 54.3351 116.362 60.5733 111.623L135.591 54.6172C137.052 53.5026 138.794 52.9499 140.546 52.9499M140.546 32.3433C134.289 32.3433 128.107 34.4227 123.124 38.2068L48.1062 95.2123C38.2525 102.696 34.2904 115.604 38.2431 127.321C42.046 138.599 52.34 146.317 64.1326 146.888V187.371C64.1326 205.458 78.8476 220.182 96.944 220.182H108.643L108.034 222.281C105.917 229.558 107.959 237.408 113.364 242.719C117.279 246.568 122.496 248.648 127.826 248.648C129.849 248.648 131.891 248.348 133.886 247.739C136.668 246.877 158.801 239.609 176.252 220.192H184.148C202.235 220.192 216.959 205.477 216.959 187.38V146.898C228.752 146.336 239.055 138.608 242.849 127.331C246.801 115.604 242.83 102.706 232.986 95.2217L157.968 38.2162C152.985 34.432 146.803 32.3526 140.546 32.3526V32.3433Z" fill="white"/>
<path d="M128.781 159.683C120.304 153.154 110.348 145.483 110.348 132.182C110.348 117.495 126.955 107.089 140.536 121.205L146.578 127.237C147.458 128.117 148.891 128.117 149.781 127.237C150.662 126.356 150.662 124.923 149.781 124.033L143.946 118.198C156.75 108.822 170.735 118.704 170.735 132.173C170.735 145.642 160.778 153.145 152.301 159.674C151.42 160.348 150.559 161.022 149.716 161.678C146.578 164.151 143.562 166.474 140.546 166.474C137.53 166.474 134.504 164.151 131.376 161.678C130.542 161.022 129.671 160.348 128.791 159.674L128.781 159.683Z" fill="white"/>
</svg>
