<svg width="222" height="232" viewBox="0 0 222 232" fill="none" xmlns="http://www.w3.org/2000/svg">
<path d="M111.039 22.5303C112.899 22.5303 114.759 23.1203 116.329 24.3103L196.419 85.1703C203.079 90.2303 199.499 100.86 191.129 100.86H170.619V166.05C170.619 173.24 164.789 179.08 157.589 179.08H138.529C123.249 201.53 97.4589 209.47 97.4589 209.47L106.309 179.08H64.4989C57.3089 179.08 51.4689 173.25 51.4689 166.05V100.86H30.9589C22.5889 100.86 19.0089 90.2303 25.6689 85.1703L105.759 24.3103C107.319 23.1203 109.179 22.5303 111.049 22.5303M111.049 0.530273C104.369 0.530273 97.7689 2.75028 92.4489 6.79028L12.3589 67.6503C1.83887 75.6403 -2.39113 89.4203 1.82887 101.93C5.88887 113.97 16.8789 122.21 29.4689 122.82V166.04C29.4689 185.35 45.1789 201.07 64.4989 201.07H76.9889L76.3389 203.31C74.0789 211.08 76.2589 219.46 82.0289 225.13C86.2089 229.24 91.7789 231.46 97.4689 231.46C99.6289 231.46 101.809 231.14 103.939 230.49C106.909 229.57 130.539 221.81 149.169 201.08H157.599C176.909 201.08 192.629 185.37 192.629 166.05V122.83C205.219 122.23 216.219 113.98 220.269 101.94C224.489 89.4203 220.249 75.6503 209.739 67.6603L129.649 6.80027C124.329 2.76027 117.729 0.540276 111.049 0.540276V0.530273Z" fill="#FFBE5C"/>
<path d="M98.4886 136.48C89.4386 129.51 78.8086 121.32 78.8086 107.12C78.8086 91.4397 96.5386 80.3297 111.039 95.3997L117.489 101.84C118.429 102.78 119.959 102.78 120.909 101.84C121.849 100.9 121.849 99.3697 120.909 98.4197L114.679 92.1897C128.349 82.1797 143.279 92.7297 143.279 107.11C143.279 121.49 132.649 129.5 123.599 136.47C122.659 137.19 121.739 137.91 120.839 138.61C117.489 141.25 114.269 143.73 111.049 143.73C107.829 143.73 104.599 141.25 101.259 138.61C100.369 137.91 99.4386 137.19 98.4986 136.47L98.4886 136.48Z" fill="#FFBE5C"/>
</svg>
