<svg width="245" height="261" viewBox="0 0 245 261" fill="none" xmlns="http://www.w3.org/2000/svg">
<path d="M0.953125 6.375H153.297V48.5625H67.75C66.1875 52.2734 64.8203 55.9844 63.6484 59.6953H141.578V93.0938H62.7695C64.7227 97.3906 68.7266 100.418 74.7812 102.176C81.0312 103.934 90.5039 104.812 103.199 104.812C122.535 104.812 138.941 103.738 152.418 101.59L159.156 141.434C153.102 142.996 145.191 144.363 135.426 145.535C125.66 146.512 116.285 147 107.301 147C70.582 147 43.8242 142.703 27.0273 134.109C10.4258 125.516 2.125 111.355 2.125 91.6289C2.125 75.0273 5.73828 60.6719 12.9648 48.5625H0.953125V6.375ZM16.7734 208.523C16.7734 191.531 22.4375 178.641 33.7656 169.852C45.2891 161.062 62.0859 156.668 84.1562 156.668H176.734C198.805 156.668 215.504 161.062 226.832 169.852C238.355 178.641 244.117 191.531 244.117 208.523C244.117 225.516 238.355 238.406 226.832 247.195C215.504 255.984 198.805 260.379 176.734 260.379H84.1562C62.0859 260.379 45.2891 255.984 33.7656 247.195C22.4375 238.406 16.7734 225.516 16.7734 208.523ZM75.3672 207.938C75.3672 213.211 80.3477 215.848 90.3086 215.848H170.582C180.543 215.848 185.523 213.211 185.523 207.938C185.523 202.664 180.543 200.027 170.582 200.027H90.3086C80.3477 200.027 75.3672 202.664 75.3672 207.938ZM152.418 49.1484H184.059V0.515625H242.652V148.465H184.059V95.4375H152.418V49.1484Z" fill="black"/>
</svg>
