<?xml version="1.0" encoding="UTF-8"?><svg id="_레이어_1" xmlns="http://www.w3.org/2000/svg" viewBox="0 0 63.53 61"><path d="m41.05,35.64c3.96-.32,7.92-.7,11.88-.92,1.95-.11,3.92-.24,5.88,0,.09,2.07,0,2.15-2.05,2.2-.38,0-.83-.21-1.13.22-.17.04-.34.07-.51.11-.43-.06-.87-.22-1.26.14-2.34,0-4.67.1-6.98.48-.2-.18-.38-.18-.52.07-3.42.33-6.83.79-10.25.95-2.61.13-5.18.5-7.78.68-.29-.16-.57-.21-.76.15-.34.02-.67.04-1.01.07-1.04-.21-2.04,0-3.03.28-.41.06-.82.11-1.23.17-2.74-.22-5.41.47-8.11.69-.71.06-1.6-.27-2.17.52-1.96.02-3.9.06-5.8.7-.47.16-1.18.26-1.51-.44,0-.33-.26-.41-.5-.5,0-.26.01-.52.02-.78.36-.07.23-.43.35-.63.06-.02.11-.06.16-.1.3.03.58,0,.73-.31,1.85-.21,3.69-.42,5.54-.63,1.35.11,2.71.02,4.03-.25.59-.12,1.37.31,1.79-.48.57-.06,1.14-.11,1.71-.17.34.38.58.27.77-.14.49-.01.98-.02,1.47-.04.09.11.17.1.25-.01,2.65-.31,5.28-.85,7.98-.77.19,0,.38-.15.56-.23.75.06,1.51.2,2.22-.21,1.6-.13,3.21-.26,4.81-.39.38.36.72.39.98-.13.25-.02.51-.04.76-.05.43.32.84.33,1.21-.09.33-.04.66-.07.99-.11.19.18.37.21.52-.05Z" style="fill:#dd1d1d;"/><path d="m29.8,44.6c-.34.03-.68.06-1.02.09-.43-.04-.89-.22-1.23.22-.34.02-.68.04-1.03.07-1.29-.24-2.54-.16-3.74.42-1.57.08-3.12.49-4.71.34-.39-.04-.74.04-1.05.28-1.04.01-2.1-.11-3.11.08-.71.14-1.62-.23-2.15.59-1.01.09-2.01.19-3.02.28-.51-.1-1.02-.19-1.49.15-.59.02-1.18.04-1.77.06-.08-.23-.28-.23-.47-.26-.89-1.57-.44-2.31,1.35-2.43,1.53-.1,3.05-.37,4.57-.56.25.22.54.17.83.13,5.14-.65,10.29-1.21,15.44-1.74,1.35-.14,2.81.11,4.08-.64,2.13-.03,4.24-.19,6.34-.66,1.42-.32,2.96-.11,4.45-.13,1.65.24,3.27-.37,4.92-.23.23.02.34-.19.41-.4,3.43-.07,6.82-.73,10.26-.62.59.02,1.17.04,1.61.5-.11.46-.11.91.04,1.36-.06.08-.12.15-.18.23-.35-.01-.64.1-.77.45-1,.01-2.01.03-3.01.04-.21-.07-.4-.09-.49.18-.34.04-.67.07-1.01.11-.19-.08-.37-.11-.5.11-2.92.04-5.83.3-8.73.6-.32-.3-.61-.25-.86.09-.15.02-.3.05-.45.07-.26-.27-.5-.26-.72.06-1.96.53-4.02-.05-5.98.48-.64-.2-1.27-.4-1.82.22-.52.03-1.04.06-1.56.09-.05-.15-.08-.16-.1,0-.58.26-1.21.2-1.82.26-.52-.09-1.04-.26-1.53.09Z" style="fill:#dd1d1d;"/><path d="m31.45,28.33c0-.82,0-1.64.01-2.45.48-1.37.67-2.79.83-4.22.62-1.69,1.11-3.46,2.81-4.47.54-.27,1.33-.2,1.46-1.04,0,0,0-.01,0-.01.62-.44,1.25-.89,1.87-1.33,1.85-.47,3.25.24,4.35,1.69,1.43,1.87,1.44,3.95,1.13,6.2-.45,3.23-2.22,5.66-4.24,8-.76.88-1.79,1.38-2.88,1.72-.99,0-1.97,0-2.96,0-1.22-.38-1.5-1.54-2.07-2.46.04-.56.18-1.14-.32-1.6Zm2.82-3.36c-.22,1.21-.28,2.43-.02,3.65-.18.71-.3,1.39.83,1.23.9-.09,1.69-.35,2.42-.98,2.18-1.89,3.16-4.44,3.95-7.07.34-1.16.24-2.41-.63-3.43-.82-.97-1.51-.98-2.32-.01-.61.74-1.07,1.55-1.2,2.53-.52.23-.44.71-.5,1.16-.1.65-.38,1.19-1.19,1.12-1.46-.14-1.43.81-1.33,1.82Z" style="fill:#dd1d1d;"/><path d="m19.75,29.66c.75-1.59,1.51-3.18,2.26-4.77.48-.16.76-.46.65-1-.12-.6-.63-.37-.99-.41-.31-.04-.63.03-.95.06-1.46-.58-2.55-1.47-2.74-3.16-.25-2.26.25-4.2,2.31-5.5.77-.48,1.59-.81,2.46-1.07,1.17.03,2.33.07,3.5.1,1.15.69,1.93,1.67,2.3,2.96-.11.51.02,1.05-.29,1.53-.22.35-.44.79-.13,1.13.52.56.32,1.22.4,1.85-.08.09-.17.18-.25.27-.39-.04-.65.09-.75.49-.62.32-1.16.73-1.61,1.26-1.18,1.19-1.59,2.76-2.14,4.26-.01.08-.03.15-.05.23-.93,1-1.41,2.22-1.71,3.54-.54.96-.65,2.36-2.27,2.2-.1-.22-.29-.21-.49-.2-.08-.09-.17-.18-.25-.27-.02-.58-.04-1.16-.06-1.74.02-.08.05-.16.07-.25.56-.35.78-.86.71-1.51Zm4.52-9.25c.65-1.01,1.4-1.98,1.43-3.26.09-.54-.15-.76-.69-.7-.68-.07-1.36-.14-2.01.17-1.16.08-1.86.85-2.45,1.71-.65.95-.32,2.01.73,2.63,1.07.64,2.41.39,2.99-.55Z" style="fill:#dd1d1d;"/></svg>