<?xml version="1.0" encoding="UTF-8"?><svg id="_레이어_1" xmlns="http://www.w3.org/2000/svg" viewBox="0 0 63.53 61"><path d="m29.31,41.38c.17,0,.34-.02.51-.03.76.01,1.55.38,2.27-.17,4.01-.16,7.97-.84,11.99-1.09,4.33-.27,8.66-.74,13-.89.61-.02,1.26-.15,1.83.21.08.09.17.18.25.27.41,1.44-.03,1.94-1.59,2.03-1.63.1-3.26.31-4.89.48-.48-.28-.95-.33-1.36.13-3.99.31-7.97.62-11.96.92-.29-.02-.58-.1-.86-.06-2.17.25-4.33.57-6.53.51-.12,0-.25.16-.38.25-.65.29-1.34.23-2.02.28-.51-.02-1.04-.21-1.51.17-2.81.39-5.67.21-8.45.8-.23-.2-.41-.19-.55.1-1.16.13-2.32.26-3.48.39-.21-.2-.39-.2-.52.09-.43.07-.86.13-1.29.2-.42-.35-.78-.39-.98.22-.59,0-1.18.02-1.77.02-.62-.08-1.26.12-1.83.08-1.56-.11-3.24,1.11-4.68-.35-.09-.33-.11-.67.03-1,.26-.05.27-.25.27-.45,1.63-.58,3.38-.46,5.05-.82,1.78-.38,3.64-.05,5.37-.7.51.23.99.29,1.4-.19.14,0,.28-.02.42-.03,1.11.18,2.19.13,3.23-.34.85-.1,1.69-.2,2.54-.3.34.39.59.27.79-.13.41-.04.81-.07,1.22-.11.18.28.32.24.45-.04.27-.03.53-.05.8-.08.25.19.49.18.72-.04.18-.03.36-.06.54-.09.26.33.4.16.51-.13.24-.02.49-.04.73-.06.27.28.5.24.72-.06Z" style="fill:#dd1d1d;"/><path d="m26.58,39.41c-.16.02-.33.05-.49.07-1.87-.13-3.72-.11-5.52.51-1.08.1-2.17.19-3.25.29-.2-.11-.38-.11-.5.12-.5.06-1,.11-1.49.17-.19-.13-.36-.13-.52.05-.26.02-.52.05-.78.07-.43-.07-.86-.16-1.23.18-.33.04-.66.08-.99.12-1.72-.09-3.41,0-5.02.69-.33,0-.66,0-.99.02-.88.06-1.49-.06-1.56-1.2-.08-1.24.68-1.41,1.55-1.55,2.06-.33,4.17-.25,6.21-.75.64.19,1.28.4,1.8-.24.28-.03.55-.05.83-.08.02.18.07.15.12.01,1.35-.09,2.69-.19,4.04-.28,2.87-.12,5.7-.61,8.53-1.11.15-.02.31-.05.46-.07.38.27.8.17,1.2.14,3.46-.32,6.93-.6,10.37-1.03,1.5-.19,3.04-.06,4.51-.53,1.15-.11,2.31-.22,3.46-.33,2.15.35,4.26.26,6.31-.54,1.29,0,2.57.04,3.86,0,.94-.03,1.55.4,1.64,1.27.11,1.03-.8,1.34-1.54,1.41-1.48.14-2.98.08-4.48.11-.07-.09-.13-.13-.18.02-1.02.1-2.05.19-3.07.29-1.21-.25-2.39-.26-3.48.45-.26,0-.52-.01-.77-.02-.22-.31-.46-.26-.71-.03-.42-.08-.84-.08-1.24.08-.63-.25-1.26-.43-1.8.18-.34.03-.67.05-1.01.08-1.24-.3-2.43-.19-3.59.34-1.81.12-3.63.25-5.44.37-.96-.14-1.86.07-2.74.42-.58.04-1.16.08-1.74.11-.29-.11-.57-.18-.77.16Z" style="fill:#dd1d1d;"/><path d="m45.26,18.71c0,.96.01,1.93.02,2.89-.27.15-.41.32-.12.59-.7,1.65-.95,3.45-1.94,5.01-1.16,1.81-2.56,3.33-4.36,4.49-1.85.4-3.67.62-5.25-.78-.32-.76-.65-1.51-.97-2.27.04-.08.04-.15-.01-.22,0-.09,0-.17,0-.26.14-1.84.29-3.68.43-5.52.25-1.84,1.04-3.46,2.08-4.97.75-.35,1.41-.85,2.04-1.37.05-.01.08-.04.1-.08.29-.06.4-.25.39-.52,2.25-1.9,3.67-1.85,6.17.21.35,1,.75,1.96,1.42,2.8Zm-5.19-1.39l-.02.03c-1.46,1.07-2,2.54-1.93,4.29-.2.8-.55,1.4-1.54,1.25-.94-.14-1.06.5-1.07,1.2-.3.14-.4.33-.15.6-.19.48-.15.97-.1,1.46-.21.41-.21.82,0,1.24.02.26.04.51.06.77-.03.02-.05.04-.08.06.04.04.08.09.13.13.02.18.03.36.05.54.51,1.09,1.65,1.02,2.74-.19,1.6-1.26,2.82-2.82,3.62-4.68.78-1.83.88-3.73.3-5.66.4-.53-.04-.63-.39-.78-.09-.09-.18-.18-.28-.27-.44-.67-.89-.91-1.33,0Z" style="fill:#dd1d1d;"/><path d="m17.83,32.4c-.5-.6-.89-1.2-.23-1.94.37.02.58-.2.74-.49,2.48-.02,4.62-.94,6.4-2.61,1.42-1.33,1.17-2.32-.64-2.98-.06-.13-.14-.2-.29-.14-.25-.03-.5-.07-.75-.1-.18-.34-.46-.29-.75-.18-.42,0-.83,0-1.25,0-.29-.11-.55-.12-.75.16-.74.14-1.43.08-2.03-.44.01-.21.05-.42-.23-.49.02-.26.04-.52.06-.77.25-.06.23-.27.24-.46.41-.28.82-.54,1.34-.54,1.34-.02,2.35-.81,3.42-1.46.35.03.53-.13.49-.49.07-.03.14-.06.21-.08.53.07.75-.2.76-.7.06-.05.12-.1.17-.16.56-.39.63-.79.02-1.2-.03-.04-.06-.07-.11-.08-.58-.68-1.28-.81-2.07-.41-.41.18-.94,0-1.2.62-.61,1.41-1.07,1.52-2.36.73-.12-.59-.24-1.17-.35-1.76.17-.94.81-1.45,1.65-1.76,1.75-.38,3.51-.28,5.26,0,2.33,1.01,2.74,3.19,1.9,4.76-.31.26-.68.48-.67.97-.09.1-.17.19-.25.29-.44.31-1.22.47-1.13,1.09.08.56.78.76,1.31.98.18.08.38.13.57.19.1.09.19.17.29.26.75,1.24.75,2.62.74,4-.12.17-.24.33-.36.5-.28.29-.71.48-.65.99-.05.05-.09.11-.11.17-.37.12-.61.37-.69.76,0,0-.03.03-.03.03-.26.03-.41.19-.49.43-.15.12-.3.23-.45.35-.53-.02-.76.37-1.01.73-.5-.02-.67.66-1.21.56-1.81.4-3.6.95-5.49.72Z" style="fill:#dd1d1d;"/></svg>