<?xml version="1.0" encoding="UTF-8"?><svg id="_레이어_1" xmlns="http://www.w3.org/2000/svg" viewBox="0 0 63.53 61"><path d="m36.8,40.73c5.91-.47,11.81-.93,17.72-1.4,1.5.29,3.05-.15,4.54.29.76,1.07.17,1.67-.74,2.16-.16-.04-.32-.12-.48-.11-3.56.24-7.13.39-10.68.79-.95.11-1.98-.11-2.89.38-1.01.08-2.02.16-3.03.24-.36-.21-.71-.28-.98.14-4.23.4-8.47.61-12.69,1.16-2.93.38-5.91.52-8.84.93-.29-.12-.57-.23-.76.14-.33.03-.66.06-1,.09-1.04-.12-2.05-.03-3.03.34-2.62.27-5.19.99-7.86.8-.76-.05-1.58-.02-1.64-1.05-.06-.96.54-1.39,1.45-1.49,2.82-.31,5.63-.63,8.45-.97,1.27-.15,2.54-.36,3.81-.54.42.28.8.3,1.13-.15.57-.05,1.14-.1,1.71-.15.18.25.33.24.45-.05.33-.04.66-.09.99-.13,1.3.16,2.56,0,3.8-.41.42-.04.83-.08,1.25-.11,2.15.15,4.27-.18,6.39-.46.98-.13,2.06.29,2.95-.45Z" style="fill:#dd1d1d;"/><path d="m8.68,41.37c-.86.1-1.71.23-2.58.3-1.48.12-1.92-.29-1.98-1.79.44-.65,1.47-.14,1.85-.93.24-.02.48-.04.72-.06.27.26.51.26.71-.08.33-.05.66-.1.99-.15.34.26.62.21.87-.13.65-.06,1.3-.12,1.96-.18.4.34.74.35,1-.17.28-.02.57.01.79-.22.05.09.1.19.16.28l.29-.34c1.25-.02,2.5-.05,3.75-.07.3.06.65.22.73-.29.32-.04.65-.09.97-.13.5.25.98.36,1.37-.18,2.82-.05,5.6-.76,8.44-.66.43.02.86-.23,1.29-.35.34.21.67.19.98-.05.34-.04.69-.08,1.03-.12.32.34.56.31.73-.14,2.6,0,5.16-.37,7.74-.67.81.15,1.62.34,2.35-.23,2.01.27,3.96-.22,5.93-.43,1.86.06,3.72.19,5.51-.47,1.25-.05,2.51.05,3.75-.18.78.68.98,1.49.52,2.44-.49.45-1.07.53-1.71.53-3.09,0-6.19,0-9.26.53-.48-.26-.94-.38-1.33.15-1.47.11-2.96.02-4.42.33-.58-.26-1.14-.38-1.64.16-1.8.16-3.6.32-5.4.48-.36-.16-.72-.25-1.03.1-1.52-.1-2.99.29-4.48.4-2.28-.25-4.5.31-6.74.57-.06,0-.1.12-.15.19-.57.09-1.19-.09-1.72.26-.33-.52-.62-.5-.87.07-.64-.45-1.33-.06-1.89.07-1.08.25-2.13.21-3.2.24-1.17.17-2.37.24-3.5.65-.42.04-.84.08-1.26.11-.44-.1-.88-.19-1.27.15Z" style="fill:#dd1d1d;"/><path d="m37.96,31.34c-1.37.63-2.75,1.19-4.31.83,0-.13-.03-.22-.18-.1-.17-.06-.33-.12-.5-.19-.03-.08-.09-.1-.17-.07-.77-.65-1.33-1.44-1.61-2.42.11-.29.13-.55-.16-.75-.03-.16-.07-.33-.1-.49.1-1.01.14-2.02,0-3.04.04-.25.07-.5.11-.75.32-.28.25-.63.18-.98.5-2.74,1.08-5.43,3.92-6.85.81-.41,1.14-1.46,2.11-1.68,1.24-.39,2.47-.29,3.7.03,1.25.62,1.89,1.72,2.34,2.97.03.1.06.2.09.3.76,3.25-.09,6.17-1.89,8.88-.45.68-.85,1.38-1.28,2.07-.46.04-.75.26-.72.77-.26.25-.52.5-.78.75-.44.04-.74.22-.76.71Zm-4.3-6.92c-.03,1.12-.13,2.25-.07,3.37.09,1.74,1.02,2.19,2.46,1.22,2.64-1.78,4.02-4.37,4.7-7.4.34-.19.24-.48.17-.76,0-.41,0-.81,0-1.22.08-.21.12-.4-.15-.51-.5-.98-.79-2.22-2.36-1.81-.41.12-.65.36-.61.81-.09.17-.18.34-.28.51-.22.11-.5.15-.5.48-.12.4-.23.81-.35,1.21-.78.55-.36,1.35-.41,2.04-.08.1-.17.2-.25.3-.32-.09-.53.02-.61.36l-.93-.06c-.37-.1-.76-.24-.67.41,0,.08.02.17.03.25-.13.25-.47.45-.16.79Z" style="fill:#dd1d1d;"/><path d="m22.22,33.12c-.18,0-.35.01-.53.02-.07-.25-.27-.26-.47-.25,0,0,0,0,0,0-.05-.32-.06-.66-.46-.77.02-1.14.04-2.27.05-3.41.27-.16.38-.35.1-.61.18-1.16.36-2.32.54-3.48.48-.78.79-1.59.64-2.53.25-1.07.48-2.15.75-3.22.13-.51.05-.67-.53-.54-.48.11-.93.3-1.4.42-.7.17-1.41.32-2.07-.33-.54-.54-.37-1.01-.15-1.55,1.51-.57,3.01-1.15,4.52-1.72.23-.17.44-.38.7-.5.69-.34,1.42-.56,2.12-.1.75.49.48,1.27.35,1.94-.19.96-.46,1.9-.7,2.85-.93,1.28-.95,2.82-1.21,4.29.04,1.21-.36,2.35-.61,3.51-.61,1.21-.64,2.52-.6,3.82.03.96-.27,1.65-1.04,2.17Z" style="fill:#dd1d1d;"/></svg>