<?xml version="1.0" encoding="UTF-8"?><svg id="_레이어_1" xmlns="http://www.w3.org/2000/svg" viewBox="0 0 63.53 61"><path d="m42.27,36.21c4.41-.36,8.82-.73,13.24-1.09.98.46,2.02,0,3.02.2.25.21.54.4.5.8.09.59-.46.93-.57,1.44,0,0-.02,0-.02,0-.56.05-1.15-.13-1.66.23-5.42.42-10.84.83-16.26,1.25-.23-.16-.41-.15-.54.13-1.33.11-2.66.22-3.99.33-.21-.1-.4-.14-.51.13-.58.04-1.17.07-1.75.11-.36-.15-.71-.23-1.01.12-.33.03-.67.05-1,.08-1.1.08-2.27-.51-3.27.39-.33.03-.66.07-.99.1-.67-.02-1.36-.27-2.01.13-.34.03-.69.06-1.03.09-2.08-.19-4.12.19-6.16.44-1.45.18-2.94.26-4.35.74-2.32.26-4.63.52-6.95.79-.83-.32-1.79.05-2.59-.48-.31-.73-.48-1.41.5-1.77.86-.22,1.84.07,2.61-.58.81-.08,1.63-.16,2.44-.25.25.36.41.21.53-.1.24-.03.48-.06.73-.09.27.3.5.25.7-.08.43-.03.87-.06,1.3-.09.16.16.32.14.47-.02.18-.03.36-.06.54-.09.26.32.4.18.49-.13,2.92-.27,5.84-.54,8.76-.82.17.07.34.09.48-.07.26-.06.52-.12.77-.18.51.08,1.03.19,1.49-.17,3.85-.15,7.64-1.08,11.52-.88.66,0,1.37.19,1.95-.02.86-.31,1.91.24,2.63-.59Z" style="fill:#dd1d1d;"/><path d="m17.72,43.72c4.05-.39,8.11-.71,12.15-1.25,1.43-.19,2.89-.05,4.32-.36,1.99-.13,3.98-.26,5.96-.4.09,0,.17-.16.25-.24,2.6-.02,5.19-.28,7.76-.63.56.26,1.11.4,1.59-.15.68-.04,1.36-.08,2.04-.13.24.32.46.27.66-.04.83-.02,1.66.05,2.47-.18.42.27.81.32,1.12-.15.5-.02,1-.05,1.49-.05,1.64-.02,2.15.64,1.69,2.2-1.82.5-3.71.33-5.56.59-.42.06-.96-.18-1.17.45-2.67-.17-5.27.41-7.9.66-1.53.15-3.08.11-4.61.17-.5.02-.99.11-1.48.17-.49-.25-.97-.35-1.37.16-1.13.11-2.27.21-3.4.32-.49-.27-.95-.3-1.37.14-3.82.14-7.58.87-11.39,1.13-.42-.26-.82-.32-1.13.18-.15,0-.3.02-.44.03-.55-.19-1.1-.4-1.5.26-.76,0-1.51.02-2.27.03-.94,0-1.85.12-2.74.45-.9.11-1.81.22-2.71.33-.29-.22-.57-.32-.76.12-1.1.14-2.2.29-3.31.4-1,.1-1.61-.53-1.71-1.37-.1-.95.59-1.15,1.51-1.23,1.83-.15,3.64-.55,5.46-.84.84.11,1.69.43,2.47-.2.34,0,.68,0,1.02.01.24.07.45.1.49-.24.49-.07.98-.13,1.47-.2.35.3.64.23.87-.15Z" style="fill:#dd1d1d;"/><path d="m33.45,18.85c.1-.08.19-.16.29-.23.68-.44,1.36-.88,2.05-1.32.06-.02.11-.06.13-.13.33-.17.6-.38.58-.8,1.73-1.69,4.29-1.34,5.85.7,1.66,2.16,1.66,4.51.98,7.01-.66,2.43-1.72,4.62-3.42,6.5-.28.04-.43.21-.48.48,0,0-.02.02-.02.02-.24.15-.49.29-.71.47-1.69,1.38-3.53,2.07-5.7,1.28-1.17-.61-1.58-1.72-1.79-2.9-.52-2.96,0-5.82.95-8.63.13-.38.23-.78.35-1.16.36,0,.5-.2.46-.55,0,0,0,0,0,0,.35-.12.57-.33.5-.74Zm6.28-.54c-.02-.15-.1-.23-.26-.21-.66-.17-1.19.07-1.45.66-.52,1.18-1.27,2.24-1.36,3.62-.06.98-.63,1.8-1.85,1.7-.25-.02-.51-.04-.64.25-.67.37-.55.95-.39,1.53-.08,1.23-.24,2.46.12,3.69.36,1.23.75,1.38,1.88.68,1.81-1.12,3.24-2.56,4.08-4.54.28-.11.41-.3.3-.61.1-.42.2-.83.3-1.25,1.05-.98,1.07-3.49.03-4.51-.03-.07-.05-.15-.08-.22.09-.53-.18-.75-.66-.79h0Z" style="fill:#dd1d1d;"/><path d="m28.31,27.16c-.06.23-.12.47-.18.7-.45.2-.54.56-.42,1-1.08,1.78-2.41,3.25-4.4,4.07-1.78.73-3.4.67-4.78-.73-1.26-1.28-1.25-2.85-.8-4.5,1.27-4.61,3.22-8.98,4.76-13.49.26-.75.76-1.38,1.66-1.09.87.28,1.17,1.04.98,1.9-.18.79-.49,1.55-.75,2.33-1.17,1.2-1.16,2.92-1.88,4.33-.63,1.23-.39,1.47,1.05,1.44.62-.01,1.24-.02,1.86-.03,1.35.61,2.53,1.39,2.88,2.97-.16.37-.16.74.01,1.11Zm-4.87-1.56c-1.24.53-2.44,1.11-3.03,2.44-.33.73-.45,1.49.05,2.19.6.84,1.35.33,1.98.06.47-.2.85-.6,1.28-.91.35,0,.49-.17.45-.51.83-.63,1.38-1.4,1.21-2.51-.34-1.04-1.03-1.2-1.94-.75Z" style="fill:#dd1d1d;"/></svg>