<?xml version="1.0" encoding="UTF-8"?><svg id="_레이어_1" xmlns="http://www.w3.org/2000/svg" viewBox="0 0 63.53 61"><path d="m15.69,38.55c1.1.19,2.21.04,3.32.05.27,0,.47-.11.55-.39.8-.14,1.68.22,2.42-.34,1.45-.32,2.91-.14,4.37-.2.41-.02.92.23,1.21-.3.63-.19,1.35.24,1.94-.27.95-.06,1.91-.25,2.84-.17,2.43.22,4.75-.5,7.14-.61.31-.01.67-.07.86-.42.38.36.89.36,1.28.24,1.05-.33,2.13-.14,3.18-.29,1.37-.15,2.75-.3,4.12-.45.46.25.91.14,1.36-.05.33.29.61.31.84-.12.91-.14,1.86.11,2.76-.25,1.49-.03,2.99-.06,4.48-.09.05.04.11.08.18.09.84,1.83-.17,2.67-1.8,2.7-.73.01-1.47.06-2.2.1-.81.05-1.63.09-2.44.14-.47-.27-.95,0-1.37.07-1.38.26-2.82-.05-4.16.47-1.07,0-2.14,0-3.21,0-1.52-.17-2.9.62-4.39.65-2.54.23-5.11.14-7.63.63-.38-.03-.78-.21-1.08.2-3.34.17-6.68.45-9.98,1.01-.51-.03-1.05-.24-1.51.18-3.46.08-6.83.9-10.27,1.13-1.27,0-2.53-.01-3.8-.02-.81-1.46-.41-2.35,1.07-2.42.45.23.87.07,1.32-.03,1.08-.24,2.17-.63,3.3-.21.27.1.35-.14.38-.35,1.14-.47,2.34-.31,3.52-.32.51,0,.97-.03,1.38-.36Z" style="fill:#dd1d1d;"/><path d="m58.56,42.63c-2.61.17-5.24.22-7.84.53-3.7.45-7.41.65-11.12.91-.69-.11-1.4-.32-2.02.21-.32.03-.64.06-.96.09-.37-.18-.74-.3-1.04.11-.25,0-.5.01-.75.02-.51-.04-1.05-.31-1.51.17-5.61.37-11.16,1.32-16.76,1.78-.33-.29-.62-.23-.86.12-1.48.21-2.95.42-4.43.64-.62-.01-1.25-.09-1.87-.03-.66.06-1.45-.33-1.94.46-.46.01-.92-.01-1.37.05-1.09.16-1.46-.65-1.51-1.39-.04-.76.47-1.39,1.42-1.36.25,0,.5,0,.75,0,2.4.18,4.72-.55,7.08-.76.55-.05,1.26.23,1.69-.42.99-.04,1.99-.08,2.98-.12.36.03.75.23,1-.22.16-.04.33-.08.49-.12.53.14,1.05.25,1.5-.19,3.05.2,6-.82,9.04-.74.35.04.74.26.99-.21.17-.03.34-.06.51-.08.84-.02,1.71.41,2.52-.16.23-.05.46-.1.69-.14.29.19.56.2.82-.07.17-.01.33-.03.5-.04.84.02,1.69.22,2.48-.25,5.18-.17,10.32-.97,15.5-1.23.96.37,1.96.04,2.94.15.59.07,1.3-.2,1.65.53.34.73-.18,1.24-.56,1.77Z" style="fill:#dd1d1d;"/><path d="m31.88,24.91c.07-.26.14-.51.21-.77.34-.19.24-.48.15-.76.05-.17.1-.34.15-.5.32-.26.11-.64.21-.95.49-.5.45-1.24.82-1.8.22-.1.19-.29.17-.47.42-.51.84-1.02,1.26-1.52.45-.28,1.08-.33,1.27-.96.81-.62,1.62-1.24,2.43-1.86.93.02,1.85.03,2.78.05.77.38,1.4.93,1.95,1.58.17.66.15,1.43.93,1.77.01.08.04.15.08.22.02,1.74.1,3.48-.23,5.2-.03.26-.07.51-.1.77-.23,1.02-.75,1.92-1.15,2.87-.95,1.42-2.46,2.39-3.12,4.03-1.05.46-2.1.92-3.15,1.38-.92-.09-1.93.26-2.68-.58-1.49-1.21-2.15-2.78-2.06-4.7.05-1,.06-2,.08-3Zm9.44-5.77c.02-.93-.9-1.02-1.41-1.34-.3-.19-.9.45-1.21.88-.26.36-.41.79-.61,1.19-.11.26-.17.55-.33.78-.64.92-.06,2.25-1.03,3.06-.31.06-.66.25-.92.17-1.46-.46-1.13.5-1.06,1.27-.86,1.05-.33,2.28-.4,3.42-.04.58,0,1.26.66,1.61.6.44,1.04-.09,1.55-.24,2.38-.83,3.23-2.92,4.09-5,.47-.3.73-.71.67-1.28,1.01-1.11,1-3.63-.02-4.51Z" style="fill:#dd1d1d;"/><path d="m24.54,31.16c-1.36,1-2.61,2.17-4.46,2.25-.73.03-1.45.13-1.75-.68-.32-.89.28-1.26,1.03-1.48.08-.02.11-.2.16-.31.2-.03.41-.03.52-.24,1.11.1,1.64-.87,2.36-1.39,1.9-1.37,1.71-2.78-.26-4.04-1.22-.77-2.59-1.08-3.89-1.63-.09-.09-.18-.17-.27-.26.02-.2.05-.4-.19-.5-.46-3.08.55-5.96,1.21-8.89.19-.85,1.01-.77,1.63-.65.73.14.96.74.82,1.42-.09.47-.4.9-.23,1.42-.39-.01-.44.24-.41.53.03.31.22.37.49.27.73.19,1.45,0,2.17-.07.96.19,1.94.54,2.82-.25.54,0,1.07-.05,1.61,0,.88.08,1.15.67,1.15,1.46-.03.02-.08.05-.08.07,0,.07.03.13.04.2-.08.16-.16.31-.23.47-1.08.37-2.21.25-3.32.37-1.08.11-2.24-.1-3.2.61-.4.05-.8.05-1.19.27-.47.27-.83.58-.76,1.14.06.5.43.75.92.86,1.22.29,2.43.59,3.49,1.32,0,.36.19.5.53.47.17.17.34.35.5.52.5,1.54.79,3.1.3,4.71-.5.67-1.01,1.34-1.51,2.01Z" style="fill:#dd1d1d;"/></svg>