<?xml version="1.0" encoding="UTF-8"?><svg id="_레이어_1" xmlns="http://www.w3.org/2000/svg" viewBox="0 0 63.53 61"><path d="m26.5,36.88c.16-.02.31-.04.47-.06.35.01.69.02,1.04.03,2.31-.03,4.58-.4,6.87-.73,1.14-.16,2.31-.14,3.45-.2,1.57-.08,3.13-.42,4.71-.36,1.79.15,3.54-.11,5.28-.5.57,0,1.14,0,1.72,0,.43,0,.94.31,1.24-.27.25-.03.5-.07.75-.1.58.33,1.23.24,1.82.16,1.64-.22,3.28-.29,4.93-.18.51.85.54,1.62-.4,2.2-.35-.25-.64-.23-.86.16-.99.04-1.98.08-2.97.11-.89-.45-1.73-.45-2.48.28-1.5.1-3,.2-4.49.3-.35-.13-.7-.22-1,.12-2.92.25-5.83.5-8.75.74-.29-.2-.56-.26-.77.12-1.01.08-2.02.17-3.02.25-.59-.02-1.22-.29-1.75.19-3.59.36-7.18.71-10.76,1.07-.6-.1-1.21-.26-1.75.19-1.33.14-2.65.28-3.98.43-.23-.19-.42-.17-.55.11-1,.11-1.99.22-2.99.32-.21-.12-.4-.16-.51.12-.93.08-1.86.16-2.79.24-.35-.08-.7-.13-.99.17-.33.04-.66.08-.99.11-.67-.02-1.34-.05-2.01-.07-.95-.46-.86-1.18-.5-1.97,1.21-.41,2.45-.7,3.72-.82.43-.08.85-.15,1.28-.23,1.1-.02,2.25.29,3.27-.41,1.25-.11,2.51-.22,3.76-.33,1-.12,2.02-.05,2.99-.36.33-.06.65-.12.98-.19.26.13.52.15.75-.06.2-.02.39-.04.59-.06.56.02,1.14.15,1.66-.19.59-.06,1.18-.11,1.76-.17.44.08.9.23,1.26-.19Z" style="fill:#dd1d1d;"/><path d="m5.71,44.46c1.84-.19,3.67-.39,5.51-.58,1.71.18,3.36-.33,5.05-.48,2.33-.19,4.64-.56,6.97-.85.42-.07.85-.13,1.27-.2.84.05,1.7.3,2.5-.2,1.26.01,2.49-.27,3.72-.44.2.17.38.17.52-.08,2.59-.19,5.19-.39,7.78-.58.43.05.86.16,1.25-.14.35-.04.7-.07,1.04-.11,1.18.07,2.4.45,3.47-.42,1.42-.02,2.83-.03,4.25-.05,1.48.07,2.96.09,4.34-.58,1.81-.23,3.63-.15,5.45-.1.58.56.5,1.27.47,1.97-.54.53-1.3.3-1.92.53-.36-.23-.71-.35-1.02.09-3.43.26-6.85.53-10.28.79-.21-.11-.4-.14-.51.13-.58.04-1.17.07-1.75.11-.44-.13-.88-.25-1.27.13-.17.02-.33.04-.5.06-.93-.01-1.87-.24-2.76.22-1.07.09-2.16-.01-3.22.27-.21-.22-.38-.21-.51.08-1.62-.09-3.17.53-4.79.41-1.6-.19-3.15.42-4.75.27-.07,0-.16.15-.24.23-.66.25-1.34.24-2.03.26-.43-.12-.85-.17-1.24.11-4.26.48-8.52.95-12.78,1.43-1.59-.24-3.19.5-4.77-.05,0,0,0,0,0,0-.55-1.01.21-1.57.76-2.19Z" style="fill:#dd1d1d;"/><path d="m22.81,14.2c1.81-.19,3.53-.04,4.92,1.32.23.22.36.54.53.81.05.52.18,1,.63,1.32.17,1.2.15,2.41.02,3.61-.24.11-.4.27-.42.55-.6.34-1.17.83-1.82.97-1.22.27-1.18,1-.59,1.66,1.32,1.49,1.07,3.21.98,4.93-.4.23-.53.58-.47,1.02-.05.05-.09.12-.12.19-.06.09-.12.19-.18.28-.74.89-1.71,1.42-2.79,1.76-1.08,0-2.16,0-3.24,0-2.55-1.11-3.53-4.36-2.07-6.82.08-.14.22-.26.28-.4.41-.88,1.57-1.44,1.64-2.24.07-.79-1.25-1.32-1.46-2.29.08-.24.04-.42-.23-.5,0-.85,0-1.7.01-2.55.41-.22.45-.61.48-1,.52-.6,1.04-1.2,1.56-1.8.86-.05,1.64-.31,2.33-.81Zm1.58,14.39c.39-1.29-.28-2.2-1.09-3.08-.25-.27-.47-.41-.82-.18-.85.57-1.69,1.11-2.06,2.17-.31.92-.16,1.64.45,2.39.61.75,1.24.39,1.89.18.98-.02,1.5-.54,1.63-1.48Zm-1.16-7.2c.89-.22,1.52-.94,2.44-1.16.72-.17.71-.87.6-1.45-.31-1.7-.95-2.04-3.25-1.83-.2-.1-.39-.13-.52.11-.27.17-.53.33-.8.5-.15.02-.23.09-.22.25-.06.14-.11.28-.17.41-.26.14-.37.34-.23.63-.15,1.24.66,1.88,1.56,2.44.16.27.34.46.59.09Z" style="fill:#dd1d1d;"/><path d="m44.64,17.93c.06.22.12.44.19.66-.08.29-.11.56.18.76.11.92.06,1.83-.03,2.75-.49,1.61-1.31,3.1-1.68,4.76-.81,1.49-1.83,2.81-3.04,4-.74.19-1.31.61-1.75,1.22-.16.01-.32.03-.48.04-1.06.34-2.15.26-3.23.23-1.15-.44-1.81-1.29-2.07-2.47.08-.31.07-.58-.26-.74-.02-.17-.04-.33-.06-.5.12-1.11.15-2.22-.01-3.33.02-.25.04-.49.06-.74.31-.2.4-.42.1-.7.44-2.65,1.36-5.05,3.47-6.85.48.05.84-.12,1.09-.54,0,0,.08-.08.08-.08.25-.06.39-.22.42-.48,0,0,.04-.04.04-.04.29-.05.41-.25.43-.52.37-.26.75-.5,1.21-.54,1.33-.14,2.55.21,3.72.78.09.08.18.17.27.25.46.68.61,1.57,1.37,2.06Zm-4.31,8.46c.15-.03.23-.12.18-.28.22-.39.45-.78.67-1.17,1-1.3,1.29-2.82,1.32-4.41,0-.49.23-1.12-.46-1.4-.04-.86-.51-1.39-1.33-1.51-.39-.06-.93-.28-1.2.3-.31.67-.9,1.18-1.04,1.94-.97.79-.75,1.95-.96,2.98-.08.09-.15.18-.23.28-.22-.06-.4-.02-.51.2-.17,0-.34.01-.51.02-.38-.39-.68-.42-.82.19-.08.28-.15.56-.23.84-.33.39-.24.82-.14,1.25-.09.91-.13,1.82.02,2.73-.2.64.04,1.2.58,1.44.71.33,1.41.1,1.94-.53.71-.39,1.31-.91,1.78-1.57.56-.24.84-.69.93-1.28h.01Z" style="fill:#dd1d1d;"/></svg>