<?xml version="1.0" encoding="UTF-8"?><svg id="_레이어_1" xmlns="http://www.w3.org/2000/svg" viewBox="0 0 63.53 61"><path d="m53.54,46.3c.21-.55.06-1.11-.37-1.46,0-.02,0-.05-.01-.09-.03-.31-.11-.6-.24-.89-.04-.09-.1-.18-.18-.26l-.09-.09c-.1-.13-.2-.27-.33-.38-.04-.12-.11-.24-.2-.34-.12-.14-.29-.33-.29-.42,0-.26-.12-.51-.31-.69-.15-.14-.28-.34-.43-.57-.1-.14-.19-.28-.29-.42-.02-.03-.09-.1-.09-.1-.05-.14-.11-.25-.15-.34-.01-.02-.02-.04-.03-.04,0,0,0,0,0,0-.03-.18-.11-.35-.23-.49l-.19-.23c-.17-.21-.35-.42-.54-.61-.22-.21-.35-.43-.41-.69,0-.03-.02-.07-.03-.1-.12-.35-.34-.58-.48-.72,0,0-.02-.02-.03-.03v-.04c-.03-.05-.06-.1-.08-.15-.08-.14-.17-.28-.26-.42-.04-.06-.08-.11-.11-.17-.06-.18-.17-.34-.32-.47-.15-.12-.29-.3-.45-.5-.09-.11-.17-.21-.32-.39-.06-.07-.14-.16-.16-.16,0,0,0,0,0,0,0-.23-.08-.45-.22-.62-.03-.04-.06-.08-.11-.13-.2-.45-.48-.81-.76-1.14-.06-.07-.12-.14-.19-.21l-.02-.02c0-.22-.09-.43-.24-.6-.21-.25-.4-.53-.61-.89-.01-.02-.03-.08-.05-.1-.07-.17-.18-.45-.46-.69-.21-.19-.39-.4-.53-.66-.11-.33-.31-.53-.41-.61l-.46-.73c-.11-.18-.22-.35-.36-.53-.03-.68-.55-1.03-.72-1.16-.07-.05-.12-.09-.14-.12-.15-.51-.44-.87-.68-1.17-.16-.2-.3-.37-.32-.49-.03-.26-.18-.52-.38-.69-.2-.16-.37-.41-.57-.69-.18-.26-.38-.55-.64-.82-.06-.09-.12-.17-.2-.24-.03-.28-.14-.49-.39-.64l-.08-.11c-.11-.15-.2-.31-.3-.48-.14-.25-.3-.53-.52-.8-.1-.12-.21-.24-.33-.35-.04-.04-.1-.1-.14-.14-.03-.27-.15-.51-.39-.73-.13-.12-.24-.32-.38-.56-.17-.29-.36-.64-.67-.96-.02-.05-.05-.1-.08-.14l-.06-.11c-.11-.19-.28-.5-.62-.72-.03-.04-.07-.09-.1-.14-.13-.17-.23-.32-.28-.44-.11-.29-.32-.56-.6-.74-.07-.04-.16-.24-.22-.36-.13-.27-.3-.52-.51-.74-.02-.07-.05-.2-.05-.29.06-.09.13-.17.2-.25.19-.23.41-.5.57-.85.41-.34.52-.82.59-1.13.01-.04.02-.09.03-.15.23-.25.35-.52.45-.75.03-.06.09-.19.1-.21.55-.49.8-1.13.74-1.92-.01-.17-.05-.3-.14-.44-.31-.64-.81-.73-1.09-.73-.09,0-.27.03-.36.05-.75.21-1.15.76-1.41,1.12-.1.13-.19.26-.27.33-.19.17-.32.46-.35.71,0,0,0,0,0,.01-.2.15-.42.41-.49.87-.24.23-.44.49-.6.79-.21-.29-.46-.51-.67-.69,0,0-.19-.17-.19-.17-.08-.07-.19-.17-.22-.17,0,0,0,0,0,0,.03-.24-.08-.56-.22-.76l-.08-.12c-.08-.12-.17-.21-.3-.29-.03-.02-.09-.12-.14-.18l-.12-.16c-.04-.05-.08-.1-.13-.14l-.29-.26c-.23-.2-.51-.32-.8-.32-.25,0-.5.08-.71.24-.53.41-.52.94-.49,1.15.1.73.38,1.44.84,2.09.11.16.23.3.35.45.18.21.29.34.29.43,0,.31.14.53.23.65.25.52.52.96.82,1.34.02.02.03.04.05.06-.02.06-.05.14-.1.23-.07.12-.12.25-.14.38l-.06.43s-.05.09-.07.13c-.05.1-.12.2-.19.29-.2.27-.46.63-.56,1.14-.16.11-.28.27-.35.45-.04.08-.08.16-.1.25-.26.3-.36.63-.42.84,0,.02-.01.04-.02.06-.27.21-.44.57-.44.91-.01.02-.12.19-.16.25-.08.14-.16.29-.23.43-.09.17-.18.35-.3.52-.2.28-.3.56-.38.79-.06.15-.11.31-.17.37-.25.27-.45.63-.55,1-.05.18-.18.38-.34.61l-.17.24c-.1.11-.24.28-.35.52-.05.11-.08.32-.09.46-.24.27-.39.59-.44.96-.07.09-.13.18-.18.26-.02.04-.04.07-.07.11-.22.11-.64.4-.61,1.04-.03.26-.06.39-.13.51-.03.05-.07.09-.11.14-.18.22-.46.56-.48.97-.02.03-.08.11-.12.17-.14.18-.37.48-.46.87-.34.33-.45.74-.49.91-.02.06-.03.12-.03.18,0,.05-.12.23-.19.32-.12.18-.27.39-.38.66l-.05.11c-.05.11-.11.24-.16.4-.06.06-.11.12-.16.19-.1.11-.18.23-.23.37-.07.13-.13.3-.15.5-.02.08-.04.19-.05.31-.26.28-.66.71-.74,1.36-.38.37-.59.86-.58,1.41-.48.49-.68,1.08-.79,1.49-.02.08-.04.1-.04.1-.2.24-.31.5-.41.7-.05.1-.12.26-.13.28-.3.19-.5.58-.49.94-.02.03-.04.07-.06.1-.06.09-.13.21-.19.34-.21.25-.31.52-.38.71-.02.05-.04.11-.06.15-.16.22-.29.46-.41.7-.11.22-.21.41-.32.53-.17.18-.26.42-.26.67v.08c-.03.05-.11.23-.13.27-.11.28-.25.55-.39.81-.08.16-.17.32-.25.49-.05.1-.1.2-.16.3-.12.2-.25.45-.36.73-.32.32-.43.7-.49,1.01-.31.44-.56.94-.56,1.56,0,.12-.06.25-.18.49l-.06.12c-.06.13-.1.27-.1.42,0,.11,0,.22.02.33,0,.03,0,.06,0,.09-.25.61-.08,1.13.04,1.47.32.97,1.22,1.62,2.25,1.62.31,0,.61-.06.9-.18.05-.02.09-.04.14-.07,0,0,.01,0,.02,0,.19-.03.35-.04.51-.04.14,0,.28.01.42.04.12.02.25.04.38.04.27,0,.53-.08.76-.21.06,0,.11,0,.17.01.12.01.24.02.36.02.27,0,.53-.03.87-.07.31-.04.58-.13.79-.2.11-.04.21-.08.32-.1.12-.02.23-.06.33-.12.13.03.27.05.41.05.27,0,.5-.07.66-.12.02,0,.04-.01.06-.02.06.01.13.02.2.02.26,0,.53-.12.73-.3l.18.03c.12.02.23.03.35.03.29,0,.55-.07.79-.2.09-.05.17-.12.24-.19.39-.01.78-.04,1.17-.07.46-.03.93-.07,1.39-.07.1,0,.38,0,.4,0,.48,0,.91-.12,1.31-.39.31.05.62.06.87.06,0,0,.61,0,.63,0,.1,0,.2-.01.29-.04.23-.07.42-.1.58-.1.06,0,.12,0,.17.02.15.03.3.05.45.05.5,0,.9-.17,1.26-.36.1,0,.19,0,.29-.01.13,0,.27-.01.4-.01.19,0,.33.02.44.05.18.06.35.1.52.1.22,0,.53-.06.83-.3.12.04.3.1.53.1.01,0,.52,0,.52,0,.29,0,.67-.01,1.07-.09l.13-.03c.09-.02.2-.04.24-.05.15.04.37.09.62.09.37,0,.71-.11,1-.31.12,0,.24-.02.37-.04.12-.02.25-.04.37-.04h.18s.21.02.21.02c.19,0,.38,0,.61.04.11.03.28.08.49.08s.41-.04.59-.13c0,0,0,0,.02.01.19.04.38.07.55.07.32,0,.62-.07.89-.21.29.07.59.1.91.1.18,0,.35,0,.53-.03.08,0,.17-.04.25-.07.4-.02.84-.05,1.29-.19.12.04.27.07.44.07.03,0,.07,0,.11,0,.28-.01.52-.09.71-.16.11.02.26.05.43.05.11,0,.22-.01.33-.03.21-.04.39-.08.55-.08.05,0,.1,0,.15.01.12.03.24.04.35.04.39,0,.78-.14,1.1-.4,0,0,0,0,0,0,.49,0,.87-.2,1.11-.33.07-.04.17-.09.21-.1.21-.05.5-.18.73-.55.06-.09.18-.21.3-.33.1-.1.21-.2.3-.31.38-.42.51-.9.39-1.41-.03-.14-.04-.24,0-.31Zm-7.97.5c-.09-.01-.19-.02-.29-.02v.1s-.06.03-.09.04l-.02-.14h-1.17c-.32,0-.65,0-.97,0-.07,0-.2.03-.27.04-.15.04-.27.08-.38.14-.29-.02-.57-.04-.86-.06-.08,0-.17,0-.25,0-.54,0-1.07.09-1.57.28-.11.04-.25.06-.46.06-.11,0-.58-.02-.71-.02-.11,0-.22,0-.35,0-.01,0-.11,0-.12,0-.13,0-.24.01-.35.04-.32-.04-.65-.05-.96-.05-.38,0-.75.03-1.11.08-.18.03-.36.07-.54.11-.21.05-.4.09-.56.09-.04,0-.07,0-.11,0-.19-.04-.38-.05-.57-.05-.25,0-.51.03-.8.08-.37.07-.69.11-1.04.11,0,0-.13,0-.14,0-.15,0-.36,0-.59.06-.07.02-.14.04-.21.07-.1-.01-.2-.02-.3-.02-.16,0-.31.02-.47.04l-.14.02c-.45.04-.89.11-1.33.19-.48.08-.92.15-1.37.18h-.22c-.41.03-.97.06-1.52.36-.03,0-.09,0-.09,0-.1-.02-.2-.03-.3-.03-.14,0-.27.02-.4.06-.14-.02-.29-.02-.43-.02-.26,0-.52.02-.78.07-.3.05-.59.12-.88.2-.3.08-.58.16-.84.18-.31.02-.62.09-.93.15-.23.05-.47.1-.71.12-.4.02-.81.08-1.3.16-.06,0-.1.02-.16.04,0,0-.03,0-.11,0h-.41c-.4,0-.87.01-1.32.24-.31.16-.71.16-1.18.16-.11,0-.21,0-.31,0,.05-.13.1-.27.13-.41,0-.04.04-.1.04-.14.04-.09.09-.21.13-.36.25-.38.42-.77.57-1.12.06-.13.12-.26.18-.4.07-.15.1-.29.1-.42.21-.28.42-.6.67-1.01.11-.18.15-.35.16-.48.02-.03.04-.06.06-.09.2-.29.26-.58.3-.77,0-.03.01-.06,0-.06,0,0,0,0,0,0,.26-.4.4-.81.52-1.17.1-.29.18-.54.3-.72.04-.07.08-.14.11-.21,0,0,.07-.1.08-.11.52-.75.92-1.47,1.25-2.25.28-.36.68-.93.84-1.67.05-.21.23-.45.42-.68.21-.25.58-.71.57-1.41,0,0,.01,0,.01,0,.18-.15.66-.53.75-1.15.05-.09.08-.18.11-.25.16-.17.3-.43.34-.8,0-.04,0-.07.01-.1.23-.2.38-.46.45-.78.24-.18.47-.51.45-1.11,0-.12.03-.18.06-.21.15-.19.26-.39.33-.61.03-.03.06-.07.09-.1.01,0,.09-.07.11-.1.21-.22.29-.45.35-.6.09-.21.16-.42.22-.64.05-.19.1-.36.22-.5.15-.17.4-.45.48-.88.04-.22.2-.46.39-.74.23-.34.52-.76.66-1.29.1-.18.22-.36.34-.54.41-.61.91-1.37.93-2.35.15-.2.31-.45.4-.76.04-.13.1-.23.18-.31.56-.5.85-1.13,1.07-1.68.02-.04.03-.08.04-.12.04-.14.06-.28.06-.43,0-.01,0-.03,0-.04.04-.04.1-.09.15-.13.43-.36.66-.79.7-1.28.25-.27.35-.58.4-.81,0,0,0,0,0,0,.01.02.02.03.03.05.16.25.34.54.61.79.02.07.04.13.07.19.02.04.04.09.05.13.07.19.17.47.39.74.34.41.66.86.99,1.32l.37.52c.18.26.34.53.5.8.31.53.65,1.13,1.18,1.65.2.19.35.5.53.84.12.23.25.45.39.67.15.24.29.46.39.71.12.3.29.75.75,1.07.06.04.13.22.2.39l.14.33c.1.17.21.34.32.5.13.19.24.35.28.5.07.22.29.48.48.6.06.04.17.19.28.35.04.06.08.12.12.17.03.04.06.07.09.11.25.25.47.56.71.9.18.26.36.51.56.76.13.15.15.22.16.25.17.71.56,1.26.92,1.72.12.16.26.32.4.47.3.33.48.55.53.79.03.15.08.29.17.41.23.32.44.64.66.96.38.56.77,1.15,1.24,1.73.07.08.15.16.23.24.01.01.02.02.04.04.1.35.29.59.44.77.09.11.19.22.28.33.28.32.52.6.6.89.03.12.09.24.17.34.21.28.39.61.58.95.09.17.19.33.28.5.03.05.06.1.1.14.11.13.22.25.35.47.17.24.36.47.56.69.32.36.57.64.64.97.03.13.08.25.15.35.23.34.42.73.57,1.19-.11.03-.2.07-.28.1-.28.11-.57.18-.87.21-.82.08-1.57.13-2.29.13,0,0-.52,0-.53,0-.05,0-.16,0-.3.02Z" style="fill:#dd1d1d;"/></svg>