<?xml version="1.0" encoding="UTF-8"?><svg id="_레이어_1" xmlns="http://www.w3.org/2000/svg" viewBox="0 0 63.53 61"><path d="m42.16,37.87c-.32.03-.65.05-.97.08-1.27.03-2.55,0-3.78.39-3.68.27-7.36.54-11.05.81-1.05-.16-2.05.05-3,.51-1.76.16-3.52.32-5.28.47-.92-.18-1.78.22-2.68.28-2.56.17-5.1.54-7.65.84-.09.01-.17.17-.26.25-.48.05-.97.11-1.45.16-.24-.32-.48-.29-.71,0-.72-.19-1.27-.49-1.26-1.39,0-.88.57-1.06,1.25-1.18,1.2.05,2.37-.07,3.48-.53,1.54.08,3.01-.3,4.52-.58,2.07-.38,4.18-.46,6.28-.67.29.31.44.12.56-.16.48-.03.97-.07,1.45-.1.27.27.5.27.71-.07.33-.05.66-.09.98-.14.33.26.62.2.87-.13.64.02,1.28.03,1.92.05.41.04.89.26,1.08-.35.31-.03.63-.07.94-.1.27.32.51.27.73-.06,2.41-.22,4.82-.44,7.23-.66,1.76.55,3.5-.07,5.24-.2.69-.05,1.59.32,2.15-.48,3.84-.04,7.62-.8,11.46-.85.67,0,1.36-.24,2.07-.24,1.84,0,2.01.17,1.91,2-.31.26-.63.52-.95.78-1.07.11-2.16-.07-3.22.21-.81-.19-1.63-.43-2.36.21-2.75.03-5.48.4-8.21.6-.68-.05-1.38-.29-2,.22Z" style="fill:#dd1d1d;"/><path d="m24.09,42.04c.19-.05.37-.1.56-.15.74.04,1.5.2,2.22-.14.17-.05.34-.1.5-.15,2.24.27,4.44-.43,6.68-.28.31.02.64-.16.83-.46,2.35-.17,4.69-.35,7.04-.52.33.06.65.13.97-.06.35-.06.69-.12,1.04-.17.51.09,1.02.15,1.48-.16.83-.06,1.67-.11,2.5-.17.09.01.18.03.28.04,1.75-.09,3.5-.18,5.25-.27,1.84.25,3.66-.41,5.51-.17.68.28.56.86.43,1.37-.17.65-.67,1.04-1.34,1.08-.87.05-1.74.03-2.6.04-.58-.05-1.16-.14-1.72.09-.26.06-.52.11-.79.17-.68-.08-1.36-.2-1.99.19-3.31.46-6.65.46-9.97.78-.38-.2-.74-.32-1.04.13-.57.04-1.15.09-1.72.13-.29-.18-.56-.27-.79.09-.25.02-.5.04-.74.07-.85-.09-1.71-.42-2.5.21-.94.08-1.87.16-2.81.24-1.8-.28-3.51.2-5.23.6-.51.04-1.02.08-1.52.12-2-.2-3.98.15-5.94.43-1.69.24-3.43.21-5.08.77-2.42.09-4.77.82-7.2.78-1.81-.03-2.08-.35-1.64-2.15,2.11-.35,4.22-.7,6.33-1.04.17-.03.34-.05.51-.08,1.4.04,2.81.02,4.18-.26.61-.13,1.35.19,1.82-.49,2.01-.17,4.03-.34,6.04-.5.17.06.33.08.47-.07Z" style="fill:#dd1d1d;"/><path d="m24.61,24.77c.29-1.96,1.01-3.8,1.53-5.69.72-.34.96-1.05,1.27-1.69.14-.13.28-.25.43-.38.7-.13,1.37-.42,1.8-.95,1.36-1.66,2.95-2.16,4.93-1.22.75.42,1.31,1.04,1.82,1.71-.18.49.13.9.29,1.3.49,1.23.61,2.48.3,3.76-.12.49-.18.97-.09,1.47-.89,3.24-2.58,5.96-5.27,8-3.18,2.4-6.09,1.41-6.97-2.68.18-1.21.26-2.42-.03-3.63Zm4.76-1.94c-1.37-.34-2.06.16-2.15,1.61-.1,1.6-.68,3.24.58,4.67.81.62,1.5.22,2.16-.27,2.36-1.72,3.57-4.18,4.42-6.89.39-1.24.03-2.42-.26-3.59-.17-.7-.81-1.15-1.43-1.23-.6-.08-1.06.43-1.38,1.04-.56,1.1-1.12,2.18-1.22,3.44-.04.51-.26.95-.73,1.22Z" style="fill:#dd1d1d;"/></svg>