<svg width="300" height="300" viewBox="0 0 300 300" fill="none" xmlns="http://www.w3.org/2000/svg">
<path d="M247.02 0H52.98C23.72 0 0 23.72 0 52.98V247.02C0 276.28 23.72 300 52.98 300H247.02C276.28 300 300 276.28 300 247.02V52.98C300 23.72 276.28 0 247.02 0Z" fill="white"/>
<path d="M235.409 119.18L155.319 58.3205C152.199 55.9505 147.869 55.9505 144.749 58.3205L64.6591 119.18C57.9991 124.24 61.5791 134.87 69.9491 134.87H90.4591V200.06C90.4591 207.25 96.2891 213.09 103.489 213.09H145.299L136.449 243.48C136.449 243.48 162.239 235.54 177.519 213.09H196.579C203.769 213.09 209.609 207.26 209.609 200.06V134.87H230.119C238.489 134.87 242.069 124.24 235.409 119.18Z" fill="white"/>
<path d="M235.409 119.18L155.319 58.3205C152.199 55.9505 147.869 55.9505 144.749 58.3205L64.6591 119.18C57.9991 124.24 61.5791 134.87 69.9491 134.87H90.4591V200.06C90.4591 207.25 96.2891 213.09 103.489 213.09H145.299L136.449 243.48C136.449 243.48 162.239 235.54 177.519 213.09H196.579C203.769 213.09 209.609 207.26 209.609 200.06V134.87H230.119C238.489 134.87 242.069 124.24 235.409 119.18Z" stroke="white" stroke-width="10" stroke-miterlimit="10"/>
<path d="M150.039 56.5303C151.899 56.5303 153.759 57.1203 155.329 58.3103L235.419 119.17C242.079 124.23 238.499 134.86 230.129 134.86H209.619V200.05C209.619 207.24 203.789 213.08 196.589 213.08H177.529C162.249 235.53 136.459 243.47 136.459 243.47L145.309 213.08H103.499C96.3089 213.08 90.4689 207.25 90.4689 200.05V134.86H69.9589C61.5889 134.86 58.0089 124.23 64.6689 119.17L144.759 58.3103C146.319 57.1203 148.179 56.5303 150.049 56.5303M150.049 34.5303C143.369 34.5303 136.769 36.7503 131.449 40.7903L51.3589 101.65C40.8389 109.64 36.6089 123.42 40.8289 135.93C44.8889 147.97 55.8789 156.21 68.4689 156.82V200.04C68.4689 219.35 84.1789 235.07 103.499 235.07H115.989L115.339 237.31C113.079 245.08 115.259 253.46 121.029 259.13C125.209 263.24 130.779 265.46 136.469 265.46C138.629 265.46 140.809 265.14 142.939 264.49C145.909 263.57 169.539 255.81 188.169 235.08H196.599C215.909 235.08 231.629 219.37 231.629 200.05V156.83C244.219 156.23 255.219 147.98 259.269 135.94C263.489 123.42 259.249 109.65 248.739 101.66L168.649 40.8003C163.329 36.7603 156.729 34.5403 150.049 34.5403V34.5303Z" fill="#FFBE5C"/>
<path d="M137.489 170.48C128.439 163.51 117.809 155.32 117.809 141.12C117.809 125.44 135.539 114.33 150.039 129.4L156.489 135.84C157.429 136.78 158.959 136.78 159.909 135.84C160.849 134.9 160.849 133.37 159.909 132.42L153.679 126.19C167.349 116.18 182.279 126.73 182.279 141.11C182.279 155.49 171.649 163.5 162.599 170.47C161.659 171.19 160.739 171.91 159.839 172.61C156.489 175.25 153.269 177.73 150.049 177.73C146.829 177.73 143.599 175.25 140.259 172.61C139.369 171.91 138.439 171.19 137.499 170.47L137.489 170.48Z" fill="#FFBE5C"/>
</svg>
