<svg width="427" height="505" viewBox="0 0 427 505" fill="none" xmlns="http://www.w3.org/2000/svg">
<path d="M426.999 475.587H0V185.535L213.881 78.4199L426.999 185.535V475.587Z" fill="#FFECDE"/>
<path d="M398.324 0.189453H331.255C323.158 0.189453 316.595 6.74599 316.595 14.8339V122.75C316.595 130.838 323.158 137.394 331.255 137.394H398.324C406.421 137.394 412.984 130.838 412.984 122.75V14.8339C412.984 6.74599 406.421 0.189453 398.324 0.189453Z" fill="#E89B34"/>
<path d="M427 216.426L223.768 112.655C217.559 109.484 210.205 109.484 203.996 112.655L0.763672 216.426V144.214L203.241 40.4577C209.446 37.2798 216.8 37.268 223.013 40.4302L427 144.214V216.426Z" fill="#EFC3A5"/>
<path d="M426.236 195.564L227.562 94.1216C218.49 89.4903 207.746 89.4903 198.674 94.1216L0 195.564V123.352L197.923 21.9288C206.987 17.2817 217.735 17.2699 226.811 21.8856L426.236 123.352V195.564Z" fill="#FFBE5C"/>
<path d="M177.572 257.747H53.4735C47.4292 257.747 42.5293 262.642 42.5293 268.679V392.642C42.5293 398.68 47.4292 403.575 53.4735 403.575H177.572C183.616 403.575 188.516 398.68 188.516 392.642V268.679C188.516 262.642 183.616 257.747 177.572 257.747Z" fill="#8D5E4C"/>
<mask id="mask0_721_4883" style="mask-type:luminance" maskUnits="userSpaceOnUse" x="68" y="283" width="95" height="95">
<path d="M153.955 283.823H76.5988C72.0639 283.823 68.3877 287.495 68.3877 292.025V369.297C68.3877 373.827 72.0639 377.5 76.5988 377.5H153.955C158.49 377.5 162.166 373.827 162.166 369.297V292.025C162.166 287.495 158.49 283.823 153.955 283.823Z" fill="white"/>
</mask>
<g mask="url(#mask0_721_4883)">
<path d="M159.389 210.874L141.437 192.941L-19.5828 353.785L-1.63057 371.718L159.389 210.874Z" fill="#D2F4FF"/>
<path d="M195.291 246.738L159.39 210.875L-1.62965 371.719L34.272 407.581L195.291 246.738Z" fill="#BFEEFF"/>
<path d="M204.262 255.704L187.308 238.769L26.2883 399.612L43.2422 416.548L204.262 255.704Z" fill="#D2F4FF"/>
<path d="M235.178 286.586L203.929 255.37L42.9094 416.214L74.1589 447.43L235.178 286.586Z" fill="white"/>
<path d="M250.806 302.192L219.557 270.977L58.5373 431.821L89.7868 463.036L250.806 302.192Z" fill="#BFEEFF"/>
</g>
<path fill-rule="evenodd" clip-rule="evenodd" d="M251.916 257.747H369.502C377.345 257.747 383.702 264.098 383.702 271.932V475H427V505H0V475H237.716V271.932C237.716 264.098 244.073 257.747 251.916 257.747Z" fill="#8D5E4C"/>
<mask id="mask1_721_4883" style="mask-type:luminance" maskUnits="userSpaceOnUse" x="263" y="283" width="95" height="95">
<path d="M349.14 283.823H271.783C267.248 283.823 263.572 287.495 263.572 292.025V369.297C263.572 373.827 267.248 377.5 271.783 377.5H349.14C353.675 377.5 357.351 373.827 357.351 369.297V292.025C357.351 287.495 353.675 283.823 349.14 283.823Z" fill="white"/>
</mask>
<g mask="url(#mask1_721_4883)">
<path d="M354.571 210.876L336.619 192.943L175.6 353.787L193.552 371.72L354.571 210.876Z" fill="#D2F4FF"/>
<path d="M390.474 246.736L354.572 210.873L193.553 371.717L229.455 407.579L390.474 246.736Z" fill="#BFEEFF"/>
<path d="M399.448 255.702L382.494 238.767L221.475 399.611L238.429 416.546L399.448 255.702Z" fill="#D2F4FF"/>
<path d="M430.365 286.588L399.115 255.372L238.096 416.216L269.345 447.432L430.365 286.588Z" fill="white"/>
<path d="M445.989 302.193L414.739 270.978L253.72 431.821L284.969 463.037L445.989 302.193Z" fill="#BFEEFF"/>
</g>
<path d="M369.344 398.06H349.265C346.659 398.06 344.546 400.17 344.546 402.773V404.38C344.546 406.983 346.659 409.094 349.265 409.094H369.344C371.951 409.094 374.063 406.983 374.063 404.38V402.773C374.063 400.17 371.951 398.06 369.344 398.06Z" fill="#633D31"/>
</svg>
